<svg id="Ebene_1" data-name="Ebene 1" xmlns="http://www.w3.org/2000/svg" viewBox="0 0 200 200"><defs><style>.cls-1{opacity:0.579;}.cls-2{fill:none;}.cls-3{fill:#fff;}.cls-4{fill:#00b0eb;}</style></defs><g id="icn-quote"><g id="Ellipse_14" data-name="Ellipse 14" class="cls-1"><circle class="cls-2" cx="100" cy="100" r="100"/><path class="cls-3" d="M100,200A100,100,0,1,1,200,100,100.113,100.113,0,0,1,100,200ZM100,3.571A96.429,96.429,0,1,0,196.429,100,96.539,96.539,0,0,0,100,3.571Z"/></g><g id="Pfad_293" data-name="Pfad 293"><path class="cls-4" d="M94.452,70.128V99.107q0,15.29-6.275,22.857t-20.765,7.889V116.005q5.8-.648,8.036-3.864a16.847,16.847,0,0,0,2.275-9.655v-1.447H67.412V70.128Zm36.864,0V99.107q0,15.29-6.275,22.857t-20.764,7.893V116.005q5.8-.648,8.035-3.864a16.85,16.85,0,0,0,2.261-9.655v-1.447h-10.3V70.128Z"/></g></g></svg>