<svg id="Ebene_1" data-name="Ebene 1" xmlns="http://www.w3.org/2000/svg" viewBox="0 0 200 200"><defs><style>.cls-1{fill:#00b0eb;}</style></defs><g id="Pfad_294" data-name="Pfad 294"><path class="cls-1" d="M160.531,195.2a2.068,2.068,0,0,1-1.177-.368L100,153.532l-59.351,41.3a2.061,2.061,0,0,1-3.148-2.289l20.938-69.209L.816,79.652a2.06,2.06,0,0,1,1.2-3.7l72.3-1.47,23.735-68.3a2.059,2.059,0,0,1,3.891,0l23.742,68.3,72.3,1.47a2.06,2.06,0,0,1,1.2,3.7l-57.623,43.685,20.94,69.209a2.061,2.061,0,0,1-1.971,2.657ZM100,148.964a2.065,2.065,0,0,1,1.176.368l55.671,38.737-19.638-64.911a2.063,2.063,0,0,1,.726-2.239L191.975,79.95l-67.808-1.38a2.058,2.058,0,0,1-1.9-1.384L100,13.13,77.737,77.186a2.06,2.06,0,0,1-1.9,1.384L8.026,79.95l54.04,40.967a2.062,2.062,0,0,1,.728,2.239L43.156,188.067,98.82,149.332A2.065,2.065,0,0,1,100,148.964Z"/></g></svg>