<svg id="Ebene_1" data-name="Ebene 1" xmlns="http://www.w3.org/2000/svg" viewBox="0 0 200 200"><defs><style>.cls-1{fill:#fff;}</style></defs><g id="arrow"><g id="Linie_4" data-name="Linie 4"><path class="cls-1" d="M100,193.612a13.7,13.7,0,0,1-13.695-13.695V37.308a13.7,13.7,0,0,1,27.39,0V179.917A13.7,13.7,0,0,1,100,193.612Z"/></g><g id="Linie_5" data-name="Linie 5"><path class="cls-1" d="M13.7,120.083A13.695,13.695,0,0,1,4.012,96.706L90.317,10.4a13.694,13.694,0,0,1,19.366,19.366L23.377,116.071A13.646,13.646,0,0,1,13.7,120.083Z"/></g><g id="Linie_6" data-name="Linie 6"><path class="cls-1" d="M186.305,120.083a13.646,13.646,0,0,1-9.682-4.012l-86.306-86.3A13.694,13.694,0,0,1,109.683,10.4l86.305,86.306a13.695,13.695,0,0,1-9.683,23.377Z"/></g></g></svg>