<svg id="Ebene_1" data-name="Ebene 1" xmlns="http://www.w3.org/2000/svg" viewBox="0 0 200 200"><defs><style>.cls-1{fill:#00b0eb;}</style></defs><g id="Pfad_47" data-name="Pfad 47"><path class="cls-1" d="M159.5,200.03c-8.376,0-18.419-2.1-29.583-6.313-23.994-9.053-50.063-26.9-73.412-50.245C5.571,92.533-10.629,37.739,6.691,20.421c1.145-1.149,2.319-2.384,3.524-3.651C17.527,9.072,26.53-.468,38.659-.014c8.289.342,16.2,5.333,24.185,15.26C86.4,44.536,75.184,55.592,63.3,67.3l-2.069,2.047c-.268.27-6.223,7.021,28.061,41.323,10.85,10.857,20.071,18.782,27.415,23.558,8.225,5.353,12.633,5.772,13.9,4.5l2.054-2.073c11.692-11.869,22.732-23.083,52.047.46h0c9.93,7.987,14.923,15.9,15.265,24.186.5,12.022-9.077,21.129-16.773,28.446-1.272,1.211-2.516,2.391-3.672,3.547C175.046,197.781,168.164,200.03,159.5,200.03ZM37.8,10.794c-6.97,0-13.743,7.128-19.733,13.433-1.269,1.333-2.506,2.634-3.715,3.846C4.517,37.9,13.189,84.842,64.162,135.818c22.284,22.283,46.994,39.249,69.581,47.769,20.16,7.605,33.678,6.507,38.139,2.049,1.216-1.217,2.527-2.463,3.866-3.738,6.427-6.111,13.714-13.039,13.418-20.152-.2-4.915-3.985-10.367-11.237-16.2-21.679-17.406-26.982-12.034-37.554-1.3l-2.11,2.132c-5.945,5.945-15.178,4.909-27.458-3.078-7.975-5.187-17.789-13.591-29.171-24.98C52.367,89.034,43.713,71.57,53.576,61.692l2.128-2.1c10.741-10.581,16.132-15.893-1.3-37.554-5.832-7.249-11.28-11.028-16.2-11.23C38.075,10.8,37.934,10.794,37.8,10.794Z"/></g></svg>