<svg id="Ebene_1" data-name="Ebene 1" xmlns="http://www.w3.org/2000/svg" viewBox="0 0 200 200"><defs><style>.cls-1{fill:#00b0eb;}</style></defs><g id="Gruppe_43" data-name="Gruppe 43"><g id="Vereinigungsmenge_2" data-name="Vereinigungsmenge 2"><path class="cls-1" d="M100.274,200,56.72,118.9q-1.473-2.7-2.862-5.326L45.383,97.789h.393C40.73,87.622,35.742,77.044,35.742,64.262a64.258,64.258,0,1,1,128.516-.006c0,12.009-4.634,21.925-9.117,31.516q-.477,1.009-.942,2.017h.624l-4.017,8.166-3.559,6.627c-7.233,14.694-15.719,29.828-22.541,41.99l-.527.942ZM61.766,104.867l1.869,3.483q1.386,2.607,2.83,5.265l.015.027,33.794,62.929,14.763-27.422c6.753-12.046,15.163-27.04,22.353-41.64L139.274,104l1.252-3q1.137-2.453,2.234-4.864c.751-1.676,1.542-3.367,2.336-5.062,4.151-8.883,8.074-17.273,8.074-26.812a53.17,53.17,0,1,0-106.34,0c0,10.748,4.638,20.073,9.551,29.949l.963,1.938c.737,1.487,1.516,3.044,2.343,4.658Zm38.263-15.812a24.827,24.827,0,0,1-24.8-24.792V64.2A24.794,24.794,0,0,1,100,39.461h.036a24.8,24.8,0,0,1,0,49.594ZM86.32,64.26a13.728,13.728,0,0,0,13.709,13.706h0a13.708,13.708,0,0,0,0-27.416h-.022A13.693,13.693,0,0,0,86.32,64.206l-5.544.056Z"/></g></g></svg>