<svg id="Ebene_1" data-name="Ebene 1" xmlns="http://www.w3.org/2000/svg" viewBox="0 0 200 200"><defs><style>.cls-1{fill:#fff;}.cls-2{fill:#c0c9cf;}</style></defs><g id="Gruppe_154" data-name="Gruppe 154"><g id="Pfad_245" data-name="Pfad 245"><path class="cls-1" d="M187.756,127.7l-20.129-8.862V66.49l20.129,8.861Z"/><path class="cls-2" d="M187.756,128.1a.39.39,0,0,1-.16-.034L167.467,119.2a.4.4,0,0,1-.237-.364V66.489a.4.4,0,0,1,.557-.363l20.129,8.862a.4.4,0,0,1,.237.363V127.7a.4.4,0,0,1-.4.4Zm-19.732-9.517,19.336,8.512V75.61L168.024,67.1Z"/></g><g id="Pfad_245-2" data-name="Pfad 245-2"><path class="cls-1" d="M148,127.7l19.124-8.862V66.49L148,75.351Z"/><path class="cls-2" d="M148,128.1a.4.4,0,0,1-.4-.4V75.351a.4.4,0,0,1,.229-.36l19.124-8.861a.4.4,0,0,1,.563.359v52.348a.4.4,0,0,1-.229.36l-19.124,8.862A.391.391,0,0,1,148,128.1Zm.4-52.491v51.473l18.33-8.494V67.111Z"/></g><g id="Pfad_245-3" data-name="Pfad 245-3"><path class="cls-1" d="M147.9,127.7l-20.129-8.862V66.49L147.9,75.351Z"/><path class="cls-2" d="M147.9,128.1a.39.39,0,0,1-.16-.034L127.606,119.2a.4.4,0,0,1-.237-.363V66.489a.4.4,0,0,1,.557-.363l20.129,8.862a.4.4,0,0,1,.237.363V127.7a.4.4,0,0,1-.4.4Zm-19.733-9.518,19.336,8.513V75.61L128.162,67.1Z"/></g></g><g id="Gruppe_155" data-name="Gruppe 155"><g id="Pfad_260" data-name="Pfad 260"><path class="cls-1" d="M149.435,128.421h31.587L199.6,148.245H168.016Z"/><path class="cls-2" d="M199.6,148.642H168.016a.4.4,0,0,1-.29-.126l-18.58-19.824a.4.4,0,0,1,.289-.668h31.587a.4.4,0,0,1,.29.125l18.581,19.825a.4.4,0,0,1-.29.668Zm-31.415-.794h30.5L180.85,128.817h-30.5Z"/></g><g id="Pfad_261" data-name="Pfad 261"><path class="cls-1" d="M149.435,126.532h31.587L199.6,146.359H168.016Z"/><path class="cls-2" d="M199.6,146.755H168.016a.4.4,0,0,1-.29-.125L149.146,126.8a.4.4,0,0,1,.289-.668h31.587a.4.4,0,0,1,.29.125l18.581,19.826a.4.4,0,0,1-.29.668Zm-31.415-.793h30.5L180.85,126.929h-30.5Z"/></g><g id="Pfad_262" data-name="Pfad 262"><path class="cls-1" d="M149.435,124.645h31.587L199.6,144.47H168.016Z"/><path class="cls-2" d="M199.6,144.867H168.016a.4.4,0,0,1-.29-.126l-18.58-19.824a.4.4,0,0,1,.289-.668h31.587a.4.4,0,0,1,.29.125L199.893,144.2a.4.4,0,0,1-.29.668Zm-31.415-.794h30.5L180.85,125.042h-30.5Z"/></g><g id="Pfad_263" data-name="Pfad 263"><path class="cls-1" d="M149.435,122.757h31.587L199.6,142.581H168.016Z"/><path class="cls-2" d="M199.6,142.978H168.016a.394.394,0,0,1-.29-.126l-18.58-19.824a.4.4,0,0,1,.289-.668h31.587a.4.4,0,0,1,.29.125l18.581,19.825a.4.4,0,0,1-.29.668Zm-31.415-.794h30.5L180.85,123.153h-30.5Z"/></g><g id="Pfad_264" data-name="Pfad 264"><path class="cls-1" d="M149.435,120.868h31.587L199.6,140.693H168.016Z"/><path class="cls-2" d="M199.6,141.09H168.016a.394.394,0,0,1-.29-.126l-18.58-19.825a.4.4,0,0,1,.289-.668h31.587a.4.4,0,0,1,.29.126l18.581,19.825a.4.4,0,0,1-.29.668Zm-31.415-.794h30.5L180.85,121.265h-30.5Z"/></g><g id="Pfad_265" data-name="Pfad 265"><path class="cls-1" d="M149.435,118.98h31.587L199.6,138.805H168.016Z"/><path class="cls-2" d="M199.6,139.2H168.016a.4.4,0,0,1-.29-.126l-18.58-19.825a.4.4,0,0,1,.289-.668h31.587a.4.4,0,0,1,.29.126l18.581,19.825a.4.4,0,0,1-.29.668Zm-31.415-.794h30.5L180.85,119.377h-30.5Z"/></g></g><g id="Gruppe_156" data-name="Gruppe 156"><g id="Pfad_247" data-name="Pfad 247"><path class="cls-2" d="M57.792,60.421a.4.4,0,0,1-.314-.154l-6.735-8.7a.4.4,0,0,1,.033-.523l2.246-2.246a.4.4,0,0,1,.45-.078l2.517,1.193a.4.4,0,0,1,.219.28l1.973,9.757a.4.4,0,0,1-.224.439A.4.4,0,0,1,57.792,60.421Zm-6.208-9.067,5.482,7.085-1.6-7.9-2.085-.988Z"/></g><g id="Rechteck_120" data-name="Rechteck 120"><rect class="cls-1" x="53.303" y="49.075" width="68.372" height="78.829"/><path class="cls-2" d="M121.675,128.3H53.3a.4.4,0,0,1-.4-.4V49.075a.4.4,0,0,1,.4-.4h68.373a.4.4,0,0,1,.4.4V127.9A.4.4,0,0,1,121.675,128.3ZM53.7,127.507h67.579V49.471H53.7Z"/></g><g id="Pfad_244" data-name="Pfad 244"><path class="cls-1" d="M106.173,147.209,50.889,130.317V51.488L106.173,68.38Z"/><path class="cls-2" d="M106.173,147.606a.385.385,0,0,1-.116-.018L50.773,130.7a.4.4,0,0,1-.281-.379V51.488a.4.4,0,0,1,.161-.319.392.392,0,0,1,.352-.06L106.289,68a.4.4,0,0,1,.281.379v78.829a.4.4,0,0,1-.4.4ZM51.286,130.023l54.49,16.65v-78l-54.49-16.65Z"/></g><g id="Pfad_245-4" data-name="Pfad 245-4"><path class="cls-1" d="M137.436,144.795,121.348,127.9V49.075l16.088,16.892Z"/><path class="cls-2" d="M137.436,145.192a.4.4,0,0,1-.288-.123l-16.087-16.892a.4.4,0,0,1-.109-.273V49.075a.4.4,0,0,1,.684-.274l16.087,16.892a.4.4,0,0,1,.11.274V144.8a.4.4,0,0,1-.4.4Zm-15.691-17.447L137.039,143.8V66.125L121.745,50.067Z"/></g></g><g id="Gruppe_157" data-name="Gruppe 157"><g id="Pfad_249" data-name="Pfad 249"><path class="cls-1" d="M80.229,99.388l-58.46-5.374v36.538l58.46,5.374Z"/><path class="cls-2" d="M80.229,136.322h-.036l-58.46-5.374a.4.4,0,0,1-.36-.4V94.014a.4.4,0,0,1,.433-.395l58.46,5.374a.4.4,0,0,1,.36.4v36.537a.4.4,0,0,1-.4.4ZM22.166,130.19l57.666,5.3V99.749l-57.666-5.3Z"/></g><g id="Pfad_243" data-name="Pfad 243"><path class="cls-1" d="M65.429,147.209l14.8-11.284V99.388l-14.8,11.284Z"/><path class="cls-2" d="M65.429,147.606a.4.4,0,0,1-.4-.4V110.672a.4.4,0,0,1,.156-.316l14.8-11.284a.4.4,0,0,1,.637.316v36.537a.4.4,0,0,1-.156.315l-14.8,11.284A.394.394,0,0,1,65.429,147.606Zm.4-36.738v35.539l14.006-10.679V100.189Z"/></g><g id="Pfad_250" data-name="Pfad 250"><path class="cls-1" d="M6.97,141.835l14.8-11.284V94.014L6.97,105.3Z"/><path class="cls-2" d="M6.97,142.232a.392.392,0,0,1-.176-.041.4.4,0,0,1-.221-.356V105.3a.4.4,0,0,1,.156-.315L21.528,93.7a.4.4,0,0,1,.638.316v36.537a.4.4,0,0,1-.156.315L7.21,142.151A.393.393,0,0,1,6.97,142.232Zm.4-36.737v35.539l14.006-10.679V94.815Z"/></g><g id="Pfad_248" data-name="Pfad 248"><path class="cls-1" d="M65.431,110.672,6.97,105.3v36.538l58.461,5.374Z"/><path class="cls-2" d="M65.431,147.607l-.037,0L6.933,142.231a.4.4,0,0,1-.36-.395V105.3a.4.4,0,0,1,.433-.395l58.461,5.374a.4.4,0,0,1,.36.395V147.21a.4.4,0,0,1-.4.4ZM7.366,141.474l57.668,5.3V111.034l-57.668-5.3Z"/></g><g id="Pfad_243-2" data-name="Pfad 243-2"><path class="cls-1" d="M8.758,76.6,21.7,94.118,80.23,99.387,67.288,81.872Z"/><path class="cls-2" d="M80.23,99.784l-.035,0L21.666,94.513a.4.4,0,0,1-.284-.159L8.439,76.838a.4.4,0,0,1,.355-.631l58.53,5.269a.4.4,0,0,1,.283.16L80.55,99.151a.4.4,0,0,1-.32.633ZM21.914,93.739l57.472,5.174L67.075,82.251,9.6,77.076Z"/></g><g id="Pfad_243-3" data-name="Pfad 243-3"><path class="cls-1" d="M.4,82.176l8.3-5.71,58.529,5.27-8.295,5.71Z"/><path class="cls-2" d="M58.927,87.843l-.036,0L.361,82.571a.4.4,0,0,1-.189-.722l8.3-5.71a.407.407,0,0,1,.261-.068L67.258,81.34a.4.4,0,0,1,.189.722l-8.3,5.711A.4.4,0,0,1,58.927,87.843Zm-57.4-5.964L58.82,87.038l7.272-5.006L8.8,76.874Z"/></g></g><g id="Gruppe_158" data-name="Gruppe 158"><g id="Pfad_243-4" data-name="Pfad 243-4"><path class="cls-1" d="M75.649,149.067l12-9.153-7.432-29.637-12,9.152Z"/><path class="cls-2" d="M75.649,149.464a.4.4,0,0,1-.385-.3l-7.432-29.637a.4.4,0,0,1,.144-.412l12-9.153a.4.4,0,0,1,.625.219l7.433,29.638a.4.4,0,0,1-.144.412l-12,9.152A.4.4,0,0,1,75.649,149.464Zm-6.984-29.878,7.222,28.8,11.319-8.629-7.223-28.8Z"/></g><g id="Pfad_243-5" data-name="Pfad 243-5"><path class="cls-1" d="M82.152,150.925l12-9.152L82.08,113.065l-12,9.152Z"/><path class="cls-2" d="M82.152,151.322a.391.391,0,0,1-.1-.013.4.4,0,0,1-.264-.23L69.709,122.37a.4.4,0,0,1,.125-.469l12-9.152a.4.4,0,0,1,.606.162l12.078,28.708a.4.4,0,0,1-.125.469l-12,9.153A.4.4,0,0,1,82.152,151.322ZM70.559,122.346,82.319,150.3l11.353-8.656L81.913,113.691Z"/></g></g></svg>