<svg id="Ebene_1" data-name="Ebene 1" xmlns="http://www.w3.org/2000/svg" viewBox="0 0 200 200"><defs><style></style></defs><g id="icn_paperplane" data-name="icn paperplane"><g id="Pfad_103" data-name="Pfad 103"><path class="cls-1" d="M178.766,99.478a.515.515,0,0,1-.353-.14L160.458,82.567,153.54,92.28a.517.517,0,0,1-.937-.268l-1.024-16.334-12.406-8.11a.517.517,0,0,1,.2-.944l60.027-9.136a.518.518,0,0,1,.539.745L179.228,99.194a.519.519,0,0,1-.371.276A.559.559,0,0,1,178.766,99.478ZM160.38,81.269a.517.517,0,0,1,.353.139l17.883,16.7,19.952-39.451-57.7,8.78,11.49,7.512a.519.519,0,0,1,.234.4l.949,15.138,6.415-9.006a.518.518,0,0,1,.369-.215Z"/></g><g id="Pfad_104" data-name="Pfad 104"><path class="cls-1" d="M160.647,82.178l-.526-.89,34.121-20.195L152.4,76.264l-.352-.972,47.038-17.055a.517.517,0,0,1,.439.931Z"/></g><g id="Pfad_105" data-name="Pfad 105"><rect class="cls-1" x="152.353" y="88.6" width="13.038" height="1.034" transform="translate(-22.93 77.704) rotate(-25.698)"/></g><g id="Pfad_106" data-name="Pfad 106"><path class="cls-1" d="M16.549,137.862c-9.407,0-15.988-.673-16.086-.683a.517.517,0,0,1-.46-.568.523.523,0,0,1,.568-.461,185.5,185.5,0,0,0,31.464.027c15.432-1.354,35.979-5.553,46.232-17.868q3.212-3.858,5.937-7.642c-1.84.481-3.65.946-5.413,1.392-8.062,2.037-14.386.629-18.8-4.184C54.616,102,53.3,92.365,53.146,85.312c-.19-8.586,1.232-16.76,2.725-21.051,1.519-4.367,6.368-7.536,13.652-8.924,9.909-1.888,23.9.01,28.925,5.845,3.885,4.506,4.155,12.78.761,23.3a97.411,97.411,0,0,1-12.552,24.473c28.443-7.532,63.137-18.241,63.518-18.359a.517.517,0,1,1,.306.988c-.387.119-36.059,11.131-64.735,18.681-2.067,2.932-4.3,5.846-6.685,8.708-10.483,12.591-31.319,16.868-46.953,18.238C26.528,137.7,21.193,137.862,16.549,137.862Zm61.06-82.229a42.493,42.493,0,0,0-7.892.719C62.811,57.668,58.241,60.6,56.848,64.6c-2.75,7.9-5.624,32.169,3.91,42.575,4.134,4.511,10.116,5.817,17.78,3.88,2.142-.541,4.35-1.111,6.6-1.7,15.169-21.562,18.6-40.451,12.524-47.5C94.35,58.012,86.121,55.633,77.609,55.633Z"/></g></g></svg>