<svg id="Ebene_1" data-name="Ebene 1" xmlns="http://www.w3.org/2000/svg" viewBox="0 0 200 200"><defs><style>.cls-1{fill:#fff;}.cls-2{opacity:0.297;}</style></defs><path class="cls-1" d="M80.515,81.21h0a40.605,40.605,0,1,1,0-81.21h0a40.6,40.6,0,1,1,0,81.21Zm0-79.752a39.147,39.147,0,1,0,0,78.293v0a39.147,39.147,0,0,0,0-78.293Z"/><rect class="cls-1" x="79.785" y="0.44" width="1.458" height="80.329"/><rect class="cls-1" x="40.35" y="39.876" width="80.33" height="1.458"/><path class="cls-1" d="M80.518,65.26h0A24.654,24.654,0,1,1,105.172,40.6,24.683,24.683,0,0,1,80.514,65.26Zm0-47.852a23.2,23.2,0,1,0,0,46.394h0a23.2,23.2,0,0,0,0-46.394Z"/><path class="cls-1" d="M128.48,144.913h0a40.6,40.6,0,0,1,0-81.209h0a40.6,40.6,0,1,1,0,81.209Zm0-79.751a39.147,39.147,0,1,0,0,78.293h0a39.147,39.147,0,0,0,0-78.293Z"/><rect class="cls-1" x="127.751" y="64.143" width="1.458" height="80.329"/><rect class="cls-1" x="88.315" y="103.58" width="80.33" height="1.458"/><path class="cls-1" d="M128.484,128.963h0a24.654,24.654,0,1,1,17.434-7.218A24.682,24.682,0,0,1,128.48,128.963Zm0-47.851a23.2,23.2,0,1,0,0,46.393h0a23.2,23.2,0,0,0,0-46.393Z"/><path class="cls-1" d="M71.521,200h0a40.605,40.605,0,0,1,0-81.21h0a40.605,40.605,0,1,1,0,81.21Zm0-79.752a39.147,39.147,0,0,0,0,78.293l0,.729v-.729a39.147,39.147,0,1,0,0-78.293Z"/><rect class="cls-1" x="70.792" y="119.23" width="1.458" height="80.329"/><rect class="cls-1" x="31.356" y="158.665" width="80.33" height="1.458"/><path class="cls-1" d="M71.526,184.047h0a24.655,24.655,0,1,1,0-49.309h0a24.655,24.655,0,1,1,0,49.309Zm0-47.851h0a23.2,23.2,0,1,0,0,46.393h.006a23.2,23.2,0,0,0,0-46.393Z"/><g id="Passermarken" class="cls-2"><g id="Gruppe_57" data-name="Gruppe 57"><g id="Gruppe_55" data-name="Gruppe 55"><g id="Pfad_58" data-name="Pfad 58"><path class="cls-1" d="M80.515,81.21h0a40.605,40.605,0,1,1,0-81.21h0a40.6,40.6,0,1,1,0,81.21Zm0-79.752a39.147,39.147,0,1,0,0,78.293v0a39.147,39.147,0,0,0,0-78.293Z"/></g></g><g id="Gruppe_56" data-name="Gruppe 56"><g id="Pfad_59" data-name="Pfad 59"><rect class="cls-1" x="79.785" y="0.44" width="1.458" height="80.329"/></g></g></g><g id="Gruppe_58" data-name="Gruppe 58"><g id="Pfad_61" data-name="Pfad 61"><rect class="cls-1" x="40.35" y="39.876" width="80.33" height="1.458"/></g></g><g id="Gruppe_61" data-name="Gruppe 61"><g id="Gruppe_59" data-name="Gruppe 59"><g id="Pfad_62" data-name="Pfad 62"><path class="cls-1" d="M80.518,65.26h0A24.654,24.654,0,1,1,105.172,40.6,24.683,24.683,0,0,1,80.514,65.26Zm0-47.852a23.2,23.2,0,1,0,0,46.394h0a23.2,23.2,0,0,0,0-46.394Z"/></g></g><g id="Gruppe_60" data-name="Gruppe 60"><g id="Pfad_63" data-name="Pfad 63"><path class="cls-1" d="M128.48,144.913h0a40.6,40.6,0,0,1,0-81.209h0a40.6,40.6,0,1,1,0,81.209Zm0-79.751a39.147,39.147,0,1,0,0,78.293h0a39.147,39.147,0,0,0,0-78.293Z"/></g></g></g><g id="Gruppe_62" data-name="Gruppe 62"><g id="Pfad_65" data-name="Pfad 65"><rect class="cls-1" x="127.751" y="64.143" width="1.458" height="80.329"/></g></g><g id="Gruppe_69" data-name="Gruppe 69"><g id="Gruppe_63" data-name="Gruppe 63"><g id="Pfad_66" data-name="Pfad 66"><rect class="cls-1" x="88.315" y="103.58" width="80.33" height="1.458"/></g></g><g id="Gruppe_64" data-name="Gruppe 64"><g id="Pfad_67" data-name="Pfad 67"><path class="cls-1" d="M128.484,128.963h0a24.654,24.654,0,1,1,17.434-7.218A24.682,24.682,0,0,1,128.48,128.963Zm0-47.851a23.2,23.2,0,1,0,0,46.393h0a23.2,23.2,0,0,0,0-46.393Z"/></g></g><g id="Gruppe_65" data-name="Gruppe 65"><g id="Pfad_68" data-name="Pfad 68"><path class="cls-1" d="M71.521,200h0a40.605,40.605,0,0,1,0-81.21h0a40.605,40.605,0,1,1,0,81.21Zm0-79.752a39.147,39.147,0,0,0,0,78.293l0,.729v-.729a39.147,39.147,0,1,0,0-78.293Z"/></g></g><g id="Gruppe_66" data-name="Gruppe 66"><g id="Pfad_69" data-name="Pfad 69"><rect class="cls-1" x="70.792" y="119.23" width="1.458" height="80.329"/></g></g><g id="Gruppe_67" data-name="Gruppe 67"><g id="Pfad_70" data-name="Pfad 70"><rect class="cls-1" x="31.356" y="158.665" width="80.33" height="1.458"/></g></g><g id="Gruppe_68" data-name="Gruppe 68"><g id="Pfad_71" data-name="Pfad 71"><path class="cls-1" d="M71.526,184.047h0a24.655,24.655,0,1,1,0-49.309h0a24.655,24.655,0,1,1,0,49.309Zm0-47.851h0a23.2,23.2,0,1,0,0,46.393h.006a23.2,23.2,0,0,0,0-46.393Z"/></g></g></g></g></svg>