<svg id="Ebene_1" data-name="Ebene 1" xmlns="http://www.w3.org/2000/svg" viewBox="0 0 200 200"><defs><style>.cls-1{fill:#fff;}.cls-2{fill:#ea5197;}</style></defs><g id="print"><circle id="BG" class="cls-1" cx="100" cy="100" r="100"/><g id="icn-druck"><g id="Pfad_79" data-name="Pfad 79"><path class="cls-2" d="M45.52,103.837c-6.347,0-12.915-6.629-15.705-16.359-3.152-11-.114-21.188,6.915-23.2.116-.033.232-.063.349-.092.054-.02.108-.038.164-.055L135.15,36.052a2,2,0,0,1,1.442.132c.211.106,21.084,10.858,10.848,36.968a2,2,0,0,1-1.311,1.193L51.6,101.451a9.084,9.084,0,0,1-3.627,2.042h0A8.869,8.869,0,0,1,45.52,103.837Zm1.9-2.267h0ZM39.19,67.93a4.941,4.941,0,0,0-1.358.188c-4.711,1.351-6.621,9.712-4.172,18.257S42.15,101,46.874,99.648h0a5.1,5.1,0,0,0,2-1.129,2,2,0,0,1,.465-.462,10.422,10.422,0,0,0,2.176-4.336,23.656,23.656,0,0,0-.468-12.33C48.823,73.648,43.647,67.93,39.19,67.93Zm6.186-1.975c4.067,2.671,7.64,7.8,9.513,14.333a27.68,27.68,0,0,1,.486,14.467q-.221.831-.5,1.6l89.193-25.576c3.388-9.214,2.9-17.2-1.457-23.734a23.512,23.512,0,0,0-7.159-6.914Z"/></g><g id="Pfad_80" data-name="Pfad 80"><path class="cls-2" d="M43.643,93.064c-3.078,0-6.189-2.986-7.457-7.41a12.269,12.269,0,0,1-.2-6.427,5.778,5.778,0,0,1,3.789-4.34c3.454-.992,7.3,2.184,8.747,7.229a12.272,12.272,0,0,1,.2,6.428,5.771,5.771,0,0,1-3.789,4.339h0A4.655,4.655,0,0,1,43.643,93.064Zm.739-2.1h0Zm-3.3-12.256a.775.775,0,0,0-.208.027c-.413.119-.806.7-1.026,1.528a8.375,8.375,0,0,0,.181,4.291c.889,3.1,2.875,4.754,3.8,4.487h0c.412-.118.806-.7,1.026-1.527a8.39,8.39,0,0,0-.181-4.292C43.849,80.337,42.072,78.705,41.083,78.705Z"/></g><g id="Pfad_81" data-name="Pfad 81"><path class="cls-2" d="M60.187,148.087a2,2,0,0,1-.549-3.922c2.133-.612,3.78-2.717,4.638-5.927a23.656,23.656,0,0,0-.467-12.33c-2.452-8.546-8.5-14.633-13.213-13.273a2,2,0,1,1-1.1-3.846h0l24.15-6.924a2,2,0,0,1,1.974.517,66.131,66.131,0,0,1,18,34.309,2,2,0,0,1-1.414,2.295l-31.46,9.022H60.74A2,2,0,0,1,60.187,148.087Zm-2.046-37.616c4.067,2.671,7.639,7.8,9.513,14.335a27.694,27.694,0,0,1,.487,14.465,17.491,17.491,0,0,1-.972,2.734l22.158-6.354A62.113,62.113,0,0,0,73.6,106.04Zm96.636,10.494a2,2,0,0,1-1.949-1.554,67.43,67.43,0,0,0-17.556-32.147,2,2,0,0,1,.878-3.321l12.035-3.451a2,2,0,0,1,1.5.162c.206.112,20.466,11.418,11.077,37.8a2,2,0,0,1-1.332,1.252l-4.1,1.177A2,2,0,0,1,154.777,120.965ZM140.393,86.887a71.412,71.412,0,0,1,15.832,29.582l1.1-.317c6.652-20.075-5.741-29.556-8.875-31.576Z"/></g><g id="Pfad_82" data-name="Pfad 82"><path class="cls-2" d="M92.982,164.064a2,2,0,0,1-1.994-2.159C94.781,114.3,63.331,97.784,63.013,97.622a2,2,0,0,1,.353-3.706L126.681,75.76a2,2,0,0,1,1.73.308c36.248,26.462,29.928,67.751,29.86,68.165a2,2,0,0,1-1.423,1.6L93.533,163.987A2.03,2.03,0,0,1,92.982,164.064ZM68.7,96.548c8.621,6.253,28.462,24.879,26.468,62.809l59.308-17c.685-6.791,2.323-40.015-27.638-62.475Z"/></g><g id="Pfad_83" data-name="Pfad 83"><path class="cls-2" d="M58.28,148.354c-2.822,0-5.746-1.312-8.447-3.833a27.674,27.674,0,0,1-7.252-12.528c-3.153-10.994-.116-21.187,6.914-23.2s15.006,5.02,18.159,16.016a27.694,27.694,0,0,1,.487,14.465c-1.236,4.621-3.864,7.725-7.4,8.738A8.853,8.853,0,0,1,58.28,148.354Zm-6.326-35.907a4.9,4.9,0,0,0-1.358.188c-4.711,1.351-6.619,9.711-4.17,18.257a23.637,23.637,0,0,0,6.138,10.7c2.428,2.269,4.94,3.177,7.074,2.569s3.78-2.717,4.638-5.927a23.656,23.656,0,0,0-.467-12.33C61.587,118.165,56.411,112.447,51.954,112.447Z"/></g><g id="Pfad_84" data-name="Pfad 84"><path class="cls-2" d="M56.411,137.609a6.268,6.268,0,0,1-4.217-1.852,12.285,12.285,0,0,1-3.236-5.558c-1.446-5.045.129-9.775,3.588-10.767s7.3,2.184,8.747,7.228-.129,9.775-3.586,10.767h0A4.668,4.668,0,0,1,56.411,137.609Zm-2.554-14.36a.738.738,0,0,0-.209.028c-.924.265-1.733,2.722-.845,5.821a8.37,8.37,0,0,0,2.121,3.734,2.1,2.1,0,0,0,1.679.751h0c.925-.264,1.732-2.72.844-5.819C56.622,124.882,54.844,123.249,53.857,123.249Z"/></g></g></g></svg>