<svg id="Ebene_1" data-name="Ebene 1" xmlns="http://www.w3.org/2000/svg" viewBox="0 0 200 200"><defs><style>.cls-1{fill:#fff;}</style></defs><g id="icon-arrow"><g id="Linie_21" data-name="Linie 21"><path class="cls-1" d="M196.175,75.689a3.852,3.852,0,0,0-3.706,2.805L180.78,119.841a3.854,3.854,0,1,0,7.416,2.1l11.69-41.347a3.852,3.852,0,0,0-3.711-4.9Z"/></g><g id="Linie_22" data-name="Linie 22"><path class="cls-1" d="M196.18,75.686h-.09l-43.959,1.009a3.857,3.857,0,0,0-3.766,3.942,3.951,3.951,0,0,0,3.942,3.766l43.959-1.009a3.854,3.854,0,0,0-.086-7.708Z"/></g><g id="Pfad_207" data-name="Pfad 207"><path class="cls-1" d="M3.89,79.586A3.854,3.854,0,0,0,1.539,86.5a165.379,165.379,0,0,0,100.24,34.073c59.186-.572,90.3-33.113,91.6-34.5a3.854,3.854,0,0,0-5.63-5.264c-.291.312-30.31,31.516-86,32.054a157.585,157.585,0,0,1-95.5-32.478A3.842,3.842,0,0,0,3.89,79.586Z"/></g></g></svg>