<svg id="Ebene_1" data-name="Ebene 1" xmlns="http://www.w3.org/2000/svg" viewBox="0 0 200 200"><defs><style>.cls-1{fill:#fff;}.cls-2{fill:#ea5197;}</style></defs><g id="Daten"><circle id="BG" class="cls-1" cx="100" cy="100" r="100"/><g id="Pfad_199" data-name="Pfad 199"><path class="cls-2" d="M138.388,149.875H60.666A2.667,2.667,0,0,1,58,147.208V52.667A2.667,2.667,0,0,1,60.666,50h52.969a2.668,2.668,0,0,1,1.966.865l24.753,27.019a2.671,2.671,0,0,1,.7,1.8v67.522A2.667,2.667,0,0,1,138.388,149.875Zm-75.055-5.333h72.388V80.723l-23.259-25.39H63.333Z"/></g><g id="Pfad_200" data-name="Pfad 200"><path class="cls-2" d="M139.054,83.491H113.575a2.667,2.667,0,0,1-2.667-2.667V53.333a2.667,2.667,0,0,1,5.334,0V78.158h22.812a2.667,2.667,0,1,1,0,5.333Z"/></g><g id="Linie_14" data-name="Linie 14"><path class="cls-2" d="M99.061,71.427H74.222a2.667,2.667,0,0,1,0-5.334H99.061a2.667,2.667,0,0,1,0,5.334Z"/></g><g id="Linie_15" data-name="Linie 15"><path class="cls-2" d="M99.061,86.951H74.222a2.667,2.667,0,0,1,0-5.334H99.061a2.667,2.667,0,0,1,0,5.334Z"/></g><g id="Linie_16" data-name="Linie 16"><path class="cls-2" d="M130.175,102.475H74.222a2.667,2.667,0,0,1,0-5.334h55.953a2.667,2.667,0,0,1,0,5.334Z"/></g><g id="Linie_18" data-name="Linie 18"><path class="cls-2" d="M130.175,116.963H74.222a2.667,2.667,0,0,1,0-5.333h55.953a2.667,2.667,0,1,1,0,5.333Z"/></g><g id="Linie_19" data-name="Linie 19"><path class="cls-2" d="M130.175,132.487H74.222a2.667,2.667,0,0,1,0-5.333h55.953a2.667,2.667,0,1,1,0,5.333Z"/></g></g></svg>