<svg id="Ebene_1" data-name="Ebene 1" xmlns="http://www.w3.org/2000/svg" viewBox="0 0 200 200"><defs><style>.cls-1{fill:#fff;}.cls-2{fill:#ea5197;}.cls-3{fill:none;}</style></defs><g id="Porto"><circle id="BG" class="cls-1" cx="100" cy="100" r="100"/><g id="Gruppe_164" data-name="Gruppe 164"><g id="waves"><g id="Pfad_96" data-name="Pfad 96"><path class="cls-2" d="M122.382,120.993c-.325,0-.644-.007-.96-.022-6.373-.282-13.014-3.351-20.047-6.6-8.036-3.714-16.346-7.554-25.271-7.88-16.342-.593-30.668,11.382-30.811,11.5a2,2,0,0,1-2.587-3.05c.63-.535,15.649-13.114,33.544-12.451,9.728.357,18.8,4.548,26.8,8.248,6.664,3.079,12.96,5.988,18.546,6.237,12.144.53,31.756-11.521,31.952-11.644a2,2,0,0,1,2.112,3.4C154.839,109.243,135.773,120.992,122.382,120.993Z"/></g><g id="Pfad_97" data-name="Pfad 97"><path class="cls-2" d="M122.764,133.937c-.324,0-.643-.007-.959-.022-6.373-.282-13.015-3.351-20.047-6.6-8.037-3.714-16.347-7.554-25.271-7.88-16.35-.593-30.669,11.382-30.811,11.5a2,2,0,0,1-2.587-3.05c.631-.535,15.677-13.115,33.544-12.451,9.728.357,18.8,4.548,26.8,8.248,6.664,3.079,12.96,5.988,18.546,6.237q.4.017.812.016c12.232,0,30.948-11.54,31.14-11.66a2,2,0,0,1,2.112,3.4C155.221,122.187,136.156,133.936,122.764,133.937Z"/></g><g id="Pfad_98" data-name="Pfad 98"><path class="cls-2" d="M123.147,146.883c-.324,0-.643-.008-.96-.022-6.372-.283-13.014-3.352-20.046-6.6-8.037-3.713-16.347-7.553-25.271-7.88-16.306-.594-30.669,11.383-30.811,11.5a2,2,0,0,1-2.588-3.051c.631-.535,15.654-13.118,33.545-12.45,9.727.356,18.8,4.548,26.8,8.247,6.664,3.079,12.96,5.988,18.546,6.237,12.149.513,31.756-11.521,31.951-11.643a2,2,0,1,1,2.112,3.4C155.6,135.133,136.539,146.882,123.147,146.883Z"/></g><g id="Pfad_99" data-name="Pfad 99"><path class="cls-2" d="M123.53,159.827c-.324,0-.643-.008-.96-.022-6.372-.283-13.014-3.352-20.047-6.6-8.036-3.713-16.346-7.553-25.27-7.88-16.314-.594-30.67,11.383-30.812,11.5a2,2,0,0,1-2.587-3.051c.632-.535,15.681-13.095,33.544-12.45,9.728.356,18.8,4.548,26.8,8.247,6.664,3.079,12.959,5.988,18.545,6.237.267.012.538.017.813.017,12.232,0,30.948-11.541,31.139-11.66a2,2,0,1,1,2.112,3.4C155.987,148.077,136.922,159.826,123.53,159.827Z"/></g></g><g id="stamp"><g id="Pfad_94" data-name="Pfad 94"><path class="cls-1" d="M134,93.511a3.744,3.744,0,0,1,4.109-3.336c.116.01.228.027.34.047l.359-4.1c-.114,0-.227,0-.343-.013a3.683,3.683,0,1,1,.444-7.352q.1.006.2.018c.115.01.228.026.34.047l.359-4.1c-.114,0-.228,0-.343-.012a3.683,3.683,0,1,1,.444-7.352c.066,0,.132.009.2.017.116.01.228.026.34.047l.359-4.1c-.114,0-.227,0-.343-.012a3.684,3.684,0,1,1,.642-7.336c.116.01.228.026.34.047l.359-4.1c-.114,0-.227,0-.343-.013a3.747,3.747,0,0,1-3.474-3.8l-5.625-.492a3.8,3.8,0,0,1-7.554-.661l-5.624-.492a3.805,3.805,0,0,1-7.555-.661L106,45.3a3.8,3.8,0,0,1-7.554-.661l-5.625-.492a3.8,3.8,0,0,1-7.554-.661L79.643,43a3.747,3.747,0,0,1-4.067,3.143l-.356,4.068a3.683,3.683,0,1,1-.642,7.336l-.355,4.069a3.682,3.682,0,1,1-.4,7.354c-.081,0-.162-.011-.242-.021l-.356,4.068a3.683,3.683,0,0,1-.4,7.355c-.081,0-.161-.012-.242-.021l-.356,4.068a3.683,3.683,0,1,1-.329,7.358q-.156-.007-.312-.027l-.356,4.068a3.683,3.683,0,1,1-.4,7.355c-.08,0-.161-.012-.241-.021l-.357,4.072a3.683,3.683,0,0,1-.4,7.355c-.081-.005-.162-.012-.242-.022l-.356,4.069a3.683,3.683,0,1,1-.641,7.327l-.356,4.068a3.742,3.742,0,0,1,3.451,4,1.1,1.1,0,0,1-.025.18l5.624.492c.005-.06,0-.12.007-.182a3.8,3.8,0,0,1,7.571.663,1.391,1.391,0,0,1-.025.18l5.623.492c.006-.06,0-.121.007-.182a3.8,3.8,0,0,1,7.571.663,1.086,1.086,0,0,1-.025.179l5.624.492c0-.059,0-.12.006-.181a3.8,3.8,0,0,1,7.571.662,1.1,1.1,0,0,1-.025.18l5.624.492c.005-.06,0-.12.007-.181a3.8,3.8,0,0,1,7.571.662,1.367,1.367,0,0,1-.025.18l5.623.492c.006-.06,0-.12.007-.181a3.743,3.743,0,0,1,4.112-3.334h.007c.116.01.228.027.34.047l.359-4.1a3.3,3.3,0,0,1-.343-.013,3.683,3.683,0,1,1,.444-7.352q.1.006.2.018c.115.01.228.026.34.047l.358-4.1c-.113,0-.227,0-.342-.012a3.683,3.683,0,1,1,.444-7.352c.066,0,.132.009.2.017.116.01.228.027.34.047l.359-4.1c-.114,0-.227,0-.343-.012a3.683,3.683,0,1,1,.444-7.352c.066,0,.132.01.2.017.115.01.228.027.34.047l.359-4.1c-.114,0-.228,0-.343-.013a3.744,3.744,0,0,1-3.468-4Z"/><path class="cls-2" d="M129.993,141.3c-.058,0-.115,0-.174-.008L124.2,140.8a2,2,0,0,1-1.794-2.342,1.786,1.786,0,0,0-1.568-1.776,1.812,1.812,0,0,0-1.334.355,1.789,1.789,0,0,0-.68,1.113c0,.06,0,.114-.009.17a2,2,0,0,1-.706,1.358,1.968,1.968,0,0,1-1.461.461l-5.625-.492a2,2,0,0,1-1.793-2.35,1.788,1.788,0,0,0-1.569-1.768,1.816,1.816,0,0,0-2.014,1.466c0,.061,0,.117-.009.173a2,2,0,0,1-.706,1.358,1.978,1.978,0,0,1-1.461.461l-5.624-.492a2,2,0,0,1-1.8-2.327,1.8,1.8,0,0,0-1.566-1.792,1.82,1.82,0,0,0-2.014,1.468c0,.06,0,.114-.009.17a2,2,0,0,1-.706,1.358,1.972,1.972,0,0,1-1.461.461l-5.623-.492a2,2,0,0,1-1.8-2.341,1.783,1.783,0,0,0-1.566-1.776,1.811,1.811,0,0,0-1.336.356,1.786,1.786,0,0,0-.68,1.11c0,.061,0,.116-.009.172a2,2,0,0,1-2.167,1.819l-5.623-.492a2,2,0,0,1-1.8-2.346,1.743,1.743,0,0,0-1.608-1.827,2,2,0,0,1-1.841-2.17l.356-4.069a2,2,0,0,1,.753-1.395,2.023,2.023,0,0,1,1.536-.408,1.367,1.367,0,0,0,.157.014h.057a1.685,1.685,0,0,0,1.688-1.625,1.682,1.682,0,0,0-1.625-1.738,2,2,0,0,1-1.926-2.173l.357-4.069a2,2,0,0,1,2.22-1.813,1.706,1.706,0,0,0,1.893-1.578,1.685,1.685,0,0,0-1.59-1.771,2,2,0,0,1-1.882-2.171l.356-4.073a2,2,0,0,1,2.249-1.81,1.682,1.682,0,1,0,.277-3.352,2,2,0,0,1-1.884-2.17l.356-4.069a2,2,0,0,1,2.241-1.81l.164.014a1.7,1.7,0,0,0,1.746-1.607,1.685,1.685,0,0,0-1.606-1.756,2,2,0,0,1-1.9-2.171l.355-4.069a2,2,0,0,1,2.216-1.814,1.692,1.692,0,0,0,1.341-.416,1.683,1.683,0,0,0-1.031-2.933,2,2,0,0,1-1.884-2.17l.356-4.069a2,2,0,0,1,2.231-1.812,1.726,1.726,0,0,0,1.326-.417,1.683,1.683,0,0,0-1.033-2.934,2,2,0,0,1-1.883-2.17l.356-4.069a2,2,0,0,1,2.19-1.816,1.684,1.684,0,1,0,.293-3.352,2,2,0,0,1-1.841-2.168l.357-4.069a2,2,0,0,1,2.187-1.816,1.733,1.733,0,0,0,1.9-1.464A1.982,1.982,0,0,1,79.818,41l5.625.492a2,2,0,0,1,1.825,2.027A1.746,1.746,0,0,0,88.887,45.3a1.766,1.766,0,0,0,1.959-1.46A1.988,1.988,0,0,1,93,42.157l5.625.492a2,2,0,0,1,1.826,2.026,1.748,1.748,0,0,0,1.619,1.774,1.773,1.773,0,0,0,1.96-1.461,1.988,1.988,0,0,1,2.15-1.678l5.625.492a2,2,0,0,1,1.825,2.027,1.806,1.806,0,0,0,3.58.313,2,2,0,0,1,2.149-1.679l5.624.492a2,2,0,0,1,1.826,2.027,1.746,1.746,0,0,0,1.619,1.773,1.773,1.773,0,0,0,1.96-1.461,1.987,1.987,0,0,1,2.15-1.678l5.625.492a2,2,0,0,1,1.825,2.026,1.748,1.748,0,0,0,1.62,1.772,1.787,1.787,0,0,0,.185.008h.012a2,2,0,0,1,1.992,2.175l-.359,4.1a2,2,0,0,1-2.358,1.792c-.047-.008-.094-.016-.142-.02a1.764,1.764,0,0,0-1.316.377,1.661,1.661,0,0,0,.985,2.971c.081.007.148.007.189.007h.011a2,2,0,0,1,1.993,2.175l-.36,4.1a2,2,0,0,1-2.346,1.794c-.051-.009-.1-.018-.154-.022l-.03-1.993-.118,1.979a1.683,1.683,0,1,0-.205,3.36c.1.007.153,0,.211.008a1.97,1.97,0,0,1,1.483.645,2,2,0,0,1,.521,1.53l-.359,4.1a2,2,0,0,1-2.347,1.794,1.523,1.523,0,0,0-.153-.022l-.031-1.994-.119,1.979a1.683,1.683,0,0,0-.2,3.36c.1.008.151.007.211.009h.012A2,2,0,0,1,140.8,86.3l-.36,4.1A2,2,0,0,1,138.1,92.19c-.051-.009-.1-.017-.154-.022a1.685,1.685,0,1,0-.332,3.348,1.414,1.414,0,0,0,.177.007A2,2,0,0,1,139.8,97.7l-.358,4.1a2,2,0,0,1-2.336,1.8c-.057-.01-.116-.019-.176-.025l-.138-.013a1.683,1.683,0,1,0-.2,3.36c.114.009.169.009.222.009a2,2,0,0,1,1.993,2.174l-.358,4.1a2,2,0,0,1-2.358,1.791c-.027,0-.183-.023-.207-.027a1.683,1.683,0,1,0-.288,3.353c.091.007.155.008.2.008a2.076,2.076,0,0,1,1.489.64,2,2,0,0,1,.526,1.534l-.358,4.1a2,2,0,0,1-2.336,1.8c-.058-.01-.117-.019-.177-.024l-.137-.013a1.683,1.683,0,1,0-.2,3.359c.115.009.168.009.223.009a2,2,0,0,1,1.992,2.175l-.358,4.1a2,2,0,0,1-2.358,1.792,1.342,1.342,0,0,0-.155-.021h0l-.057-.007a1.762,1.762,0,0,0-1.892,1.555.827.827,0,0,1,0,.146,2,2,0,0,1-1.993,1.827Zm-3.79-4.34,2.279.2a5.758,5.758,0,0,1,4.142-3.29l.044-.507a5.689,5.689,0,0,1,.953-10.9l.044-.507a5.688,5.688,0,0,1,.953-10.9l.045-.5a5.689,5.689,0,0,1,.953-10.9l.045-.515a5.76,5.76,0,0,1-3.656-5.771c0-.021,0-.043,0-.064a5.753,5.753,0,0,1,4.6-5.042l.046-.514a5.689,5.689,0,0,1,.953-10.9l.044-.5a5.689,5.689,0,0,1,.953-10.9l.045-.518a5.681,5.681,0,0,1,.951-10.877l.047-.527a5.762,5.762,0,0,1-3.382-3.571l-2.545-.223a5.831,5.831,0,0,1-10.636-.93l-2.542-.223a5.832,5.832,0,0,1-10.637-.93l-2.543-.223a5.831,5.831,0,0,1-10.635-.93l-2.544-.223a5.831,5.831,0,0,1-10.636-.93l-2.543-.223a5.77,5.77,0,0,1-3.585,2.839l-.067.769a5.656,5.656,0,0,1-.931,10.636l-.064.739A5.687,5.687,0,0,1,75.426,70.8l-.061.71A5.689,5.689,0,0,1,74.43,82.2l-.062.7a5.686,5.686,0,0,1-.937,10.715l-.061.7A5.688,5.688,0,0,1,72.434,105l-.063.718a5.682,5.682,0,0,1-.935,10.685l-.06.683a5.686,5.686,0,0,1-.938,10.742l-.063.713a5.779,5.779,0,0,1,3.15,3.806l2.3.2a5.8,5.8,0,0,1,10.848.948l2.329.2a5.795,5.795,0,0,1,10.847.949l2.327.2a5.8,5.8,0,0,1,10.85.948l2.312.2a5.807,5.807,0,0,1,10.864.949Zm-16.948.2h0Zm0,0v0Zm0,0v0Z"/></g><g id="Pfad_95" data-name="Pfad 95"><path class="cls-3" d="M84.692,52.057l47.245,4.133-6.486,74.14L78.206,126.2Z"/><path class="cls-2" d="M88.329,56.391l-5.79,66.17L121.815,126l5.789-66.17L88.329,56.391m-3.637-4.334,47.246,4.134-6.487,74.139L78.206,126.2Z"/></g></g></g></g></svg>