<?xml version="1.0" encoding="utf-8"?>
<!-- Generator: Adobe Illustrator 24.3.0, SVG Export Plug-In . SVG Version: 6.00 Build 0)  -->
<svg version="1.1" id="Ebene_1" xmlns="http://www.w3.org/2000/svg" xmlns:xlink="http://www.w3.org/1999/xlink" x="0px" y="0px"
	 viewBox="0 0 200 200" style="enable-background:new 0 0 200 200;" xml:space="preserve">
<style type="text/css">
	.st0{fill:#656565;}
	.st1{fill:#00B0EB;}
	.st2{fill:#FFFFFF;}
	.st3{fill:#EA5197;}
	.st4{fill:#969696;}
	.st5{fill:#FFEF42;}
	.st6{fill:#4C8C8C;}
	.st7{opacity:0.579;}
	.st8{fill:none;}
	.st9{fill:#231F20;}
	.st10{clip-path:url(#SVGID_2_);}
	.st11{clip-path:url(#SVGID_4_);}
	.st12{fill:#C0C9CF;}
	.st13{opacity:0.3;fill:#00B0EB;}
</style>
<g id="Icon_material-home">
	<path class="st0" d="M165.806,185.9h-47c-3.309,0-5.993-2.684-5.993-5.993v-50.406H87.195v50.406c0,3.309-2.684,5.993-5.993,5.993
		H34.194c-3.309,0-5.993-2.684-5.993-5.993v-69.208H5.993c-2.481,0-4.705-1.529-5.595-3.847c-0.89-2.314-0.258-4.94,1.584-6.602
		l94.015-84.612c2.279-2.052,5.743-2.052,8.022,0l93.999,84.612c1.842,1.662,2.474,4.288,1.584,6.602
		c-0.89,2.318-3.114,3.847-5.595,3.847h-22.208v69.208C171.798,183.216,169.114,185.9,165.806,185.9z M124.799,173.914h35.014
		v-69.208c0-3.309,2.684-5.993,5.993-5.993h12.587L100.008,28.16l-78.4,70.554h12.587c3.309,0,5.993,2.684,5.993,5.993v69.208
		h35.021v-50.406c0-3.309,2.684-5.993,5.993-5.993h37.604c3.309,0,5.993,2.684,5.993,5.993V173.914z"/>
</g>
</svg>
