<svg id="Ebene_1" data-name="Ebene 1" xmlns="http://www.w3.org/2000/svg" viewBox="0 0 200 200"><defs><style>.cls-1{fill:#656565;}</style></defs><g id="Icon_material-home" data-name="Icon material-home"><path class="cls-1" d="M165.806,185.9h-47a5.994,5.994,0,0,1-5.993-5.993V129.5H87.2v50.406A6,6,0,0,1,81.2,185.9H34.194a5.994,5.994,0,0,1-5.992-5.993V110.7H5.993a5.995,5.995,0,0,1-4.011-10.448L96,15.639a6,6,0,0,1,8.022,0l94,84.612a5.995,5.995,0,0,1-4.011,10.448H171.8v69.208A5.994,5.994,0,0,1,165.806,185.9ZM124.8,173.914h35.014V104.706a6,6,0,0,1,5.993-5.993h12.586L100.008,28.16l-78.4,70.553H34.194a6,6,0,0,1,5.993,5.993v69.208H75.209v-50.4a5.994,5.994,0,0,1,5.993-5.993h37.6a5.994,5.994,0,0,1,5.993,5.993Z"/></g></svg>