<svg id="Ebene_1" data-name="Ebene 1" xmlns="http://www.w3.org/2000/svg" viewBox="0 0 200 200"><defs><style>.cls-1{fill:#969696;}.cls-2{fill:none;}.cls-3{fill:#ffef42;}</style></defs><g id="Lettershop"><path id="BG" class="cls-1" d="M100,0A100,100,0,1,1,0,100,100,100,0,0,1,100,0Z"/><g id="icn-design"><g id="Gruppe_160" data-name="Gruppe 160"><g id="Rechteck_120" data-name="Rechteck 120"><rect class="cls-2" x="71.313" y="52.212" width="21.483" height="58.505" rx="4" transform="translate(-33.571 81.881) rotate(-45)"/><path class="cls-3" d="M95.143,108.086a3.988,3.988,0,0,1-2.827-1.168L56.6,71.2a4,4,0,0,1,0-5.656l9.534-9.534a4.005,4.005,0,0,1,5.656,0l35.712,35.714a4,4,0,0,1,0,5.657l-9.534,9.534A3.981,3.981,0,0,1,95.143,108.086Zm0-4,0,0,9.532-9.535L68.965,58.841l-9.534,9.534,35.712,35.714Z"/></g><g id="Linie_126" data-name="Linie 126"><path class="cls-3" d="M95.893,95.247a2,2,0,0,1-1.414-3.414l4.5-4.5a2,2,0,0,1,2.828,2.828l-4.5,4.5A2,2,0,0,1,95.893,95.247Z"/></g><g id="Linie_127" data-name="Linie 127"><path class="cls-3" d="M89.9,89.248a2,2,0,0,1-1.415-3.415l4.5-4.5a2,2,0,0,1,2.829,2.829l-4.5,4.5A2,2,0,0,1,89.9,89.248Z"/></g><g id="Linie_128" data-name="Linie 128"><path class="cls-3" d="M83.9,83.249a2,2,0,0,1-1.414-3.414l4.5-4.5a2,2,0,0,1,2.829,2.828l-4.5,4.5A1.992,1.992,0,0,1,83.9,83.249Z"/></g><g id="Linie_129" data-name="Linie 129"><path class="cls-3" d="M77.9,77.25a2,2,0,0,1-1.414-3.414l4.5-4.5a2,2,0,0,1,2.828,2.828l-4.5,4.5A1.99,1.99,0,0,1,77.9,77.25Z"/></g><g id="Linie_130" data-name="Linie 130"><path class="cls-3" d="M71.9,71.251a2,2,0,0,1-1.414-3.414l4.5-4.5a2,2,0,1,1,2.828,2.828l-4.5,4.5A1.99,1.99,0,0,1,71.9,71.251Z"/></g></g><g id="Gruppe_161" data-name="Gruppe 161"><g id="Rechteck_120-2" data-name="Rechteck 120-2"><rect class="cls-2" x="105.979" y="86.879" width="21.483" height="58.505" rx="4" transform="translate(-47.931 116.548) rotate(-45)"/><path class="cls-3" d="M129.81,142.753a3.991,3.991,0,0,1-2.827-1.168L91.27,105.87a4,4,0,0,1,0-5.656L100.8,90.68a4.007,4.007,0,0,1,5.657,0l35.712,35.713a4,4,0,0,1,0,5.657l-9.534,9.534A3.984,3.984,0,0,1,129.81,142.753Zm0-4h0l9.533-9.534L103.632,93.508,94.1,103.042l35.712,35.713Z"/></g><g id="Linie_126-2" data-name="Linie 126-2"><path class="cls-3" d="M130.56,129.913a2,2,0,0,1-1.414-3.414l4.5-4.5a2,2,0,1,1,2.828,2.828l-4.5,4.5A2,2,0,0,1,130.56,129.913Z"/></g><g id="Linie_127-2" data-name="Linie 127-2"><path class="cls-3" d="M124.561,123.915a2,2,0,0,1-1.414-3.414l4.5-4.5a2,2,0,1,1,2.828,2.828l-4.5,4.5A1.99,1.99,0,0,1,124.561,123.915Z"/></g><g id="Linie_128-2" data-name="Linie 128-2"><path class="cls-3" d="M118.562,117.915a2,2,0,0,1-1.414-3.414l4.5-4.5a2,2,0,1,1,2.828,2.828l-4.5,4.5A1.994,1.994,0,0,1,118.562,117.915Z"/></g><g id="Linie_129-2" data-name="Linie 129-2"><path class="cls-3" d="M112.564,111.917a2,2,0,0,1-1.414-3.414l4.5-4.5a2,2,0,0,1,2.829,2.828l-4.5,4.5A2,2,0,0,1,112.564,111.917Z"/></g><g id="Linie_130-2" data-name="Linie 130-2"><path class="cls-3" d="M106.564,105.918a2,2,0,0,1-1.414-3.414l4.5-4.5a2,2,0,0,1,2.828,2.828l-4.5,4.5A1.992,1.992,0,0,1,106.564,105.918Z"/></g></g><g id="Pen"><g id="Icon_metro-pencil" data-name="Icon metro-pencil"><path class="cls-3" d="M136.163,79.385l-14.912-14.91,5.078-5.05A10.65,10.65,0,0,1,132.7,57.3h.018a10.632,10.632,0,0,1,8.5,17.01l-.186.214Zm-9.255-14.91,9.255,9.254,1.931-1.931a6.631,6.631,0,0,0-5.383-10.5H132.7a6.623,6.623,0,0,0-3.856,1.247Z"/></g><g id="Pfad_267" data-name="Pfad 267"><path class="cls-1" d="M117.347,71.093l-55.06,55.06-3.138,15.034L74.036,137.9l55.06-55.06Z"/><path class="cls-3" d="M56.559,143.806l3.893-18.645,56.9-56.9,14.576,14.577L75.036,139.729Zm7.565-16.66-2.386,11.42,11.3-2.49,53.234-53.234-8.92-8.921Z"/></g><path id="Pfad_268" data-name="Pfad 268" class="cls-3" d="M62.259,128.324s5.067-.873,7.953,1.654,2.908,9.207,2.908,9.207L60.6,141.708Z"/></g></g></g></svg>