<svg id="Ebene_1" data-name="Ebene 1" xmlns="http://www.w3.org/2000/svg" viewBox="0 0 200 200"><defs><style>.cls-1{fill:#969696;}.cls-2{fill:#ffef42;}</style></defs><g id="Lettershop"><path id="BG" class="cls-1" d="M100,0A100,100,0,1,1,0,100,100,100,0,0,1,100,0Z"/><g id="icn_bubbles" data-name="icn bubbles"><g id="Icon_material-chat-bubble" data-name="Icon material-chat-bubble"><path class="cls-2" d="M53.333,127.219a2,2,0,0,1-2-2v-62.3A8.966,8.966,0,0,1,60.249,54h55.388a8.964,8.964,0,0,1,8.915,8.915v41.538a8.966,8.966,0,0,1-8.915,8.922H68.005L54.747,126.633A2,2,0,0,1,53.333,127.219ZM60.255,58a4.953,4.953,0,0,0-4.922,4.927v57.464l10.43-10.43a2,2,0,0,1,1.414-.586H115.63a4.953,4.953,0,0,0,4.922-4.928V62.921A4.953,4.953,0,0,0,115.628,58Z"/></g><g id="Icon_material-chat-bubble-2" data-name="Icon material-chat-bubble-2"><path class="cls-2" d="M146.667,145.885a2,2,0,0,1-1.414-.586L132,132.042H84.37a8.967,8.967,0,0,1-8.922-8.916V81.588a8.966,8.966,0,0,1,8.915-8.921h55.382a8.966,8.966,0,0,1,8.922,8.915v62.3a2,2,0,0,1-2,2Zm-13.844-17.843a2,2,0,0,1,1.414.586l10.43,10.429V81.588a4.953,4.953,0,0,0-4.929-4.921H84.372a4.954,4.954,0,0,0-4.924,4.927V123.12a4.953,4.953,0,0,0,4.928,4.922Z"/></g></g></g></svg>