<svg id="Ebene_1" data-name="Ebene 1" xmlns="http://www.w3.org/2000/svg" viewBox="0 0 200 200"><defs><style>.cls-1{fill:#4c8c8c;}</style></defs><g id="icon-arrow"><g id="Linie_21" data-name="Linie 21"><path class="cls-1" d="M196.143,124.526a3.852,3.852,0,0,1-3.706-2.8l-11.69-41.347a3.854,3.854,0,0,1,7.417-2.1l11.689,41.347a3.853,3.853,0,0,1-2.659,4.757A3.785,3.785,0,0,1,196.143,124.526Z"/></g><g id="Linie_22" data-name="Linie 22"><path class="cls-1" d="M196.148,124.528h-.091L152.1,123.52a3.858,3.858,0,0,1-3.766-3.942,3.951,3.951,0,0,1,3.942-3.766l43.959,1.009a3.854,3.854,0,0,1-.085,7.707Z"/></g><g id="Pfad_207" data-name="Pfad 207"><path class="cls-1" d="M3.857,120.629a3.854,3.854,0,0,1-2.351-6.91,165.373,165.373,0,0,1,100.24-34.073c59.187.572,90.3,33.112,91.6,34.5a3.854,3.854,0,1,1-5.63,5.264c-.291-.311-30.31-31.515-86-32.053A157.585,157.585,0,0,0,6.2,119.831,3.841,3.841,0,0,1,3.857,120.629Z"/></g></g></svg>