<svg id="Ebene_1" data-name="Ebene 1" xmlns="http://www.w3.org/2000/svg" viewBox="0 0 200 200"><defs><style>.cls-1{fill:#969696;}.cls-2{fill:#ffef42;}</style></defs><g id="Gruppe_165" data-name="Gruppe 165"><g id="Lettershop"><circle id="BG" class="cls-1" cx="100" cy="100" r="100"/></g><g id="idea"><g id="Icon_awesome-lightbulb" data-name="Icon awesome-lightbulb"><path class="cls-2" d="M104.127,148.189H95.745a6.336,6.336,0,0,1-5.284-2.831l-2.321-3.494a6.323,6.323,0,0,1-1.063-3.5h0l-.006-5.206a2,2,0,0,1,2-2h21.722a2,2,0,0,1,2,2v5.209a6.321,6.321,0,0,1-1.062,3.506l-2.322,3.491A6.329,6.329,0,0,1,104.127,148.189Zm-13.05-9.834a2.361,2.361,0,0,0,.393,1.3l2.322,3.492a2.345,2.345,0,0,0,1.953,1.046h8.382a2.339,2.339,0,0,0,1.952-1.046l2.321-3.491a2.333,2.333,0,0,0,.393-1.294v-3.206H91.073ZM110.815,126.8H89.052a2,2,0,0,1-1.962-1.613,36.855,36.855,0,0,0-6.669-11.62,25.894,25.894,0,1,1,39,.024,36.847,36.847,0,0,0-6.647,11.593A2,2,0,0,1,110.815,126.8ZM91.037,124.7h0Zm-.563-1.895h18.92a40.887,40.887,0,0,1,7-11.819A21.9,21.9,0,1,0,78.03,96.553v0a21.751,21.751,0,0,0,5.42,14.4A40.933,40.933,0,0,1,90.474,122.8Z"/></g><g id="Pfad_266" data-name="Pfad 266"><path class="cls-2" d="M83.943,95.924a2.027,2.027,0,0,1-.392-.039,2,2,0,0,1-1.573-2.35,24.892,24.892,0,0,1,4.255-9.78c3.911-5.8,13.219-6.277,13.614-6.294a2.024,2.024,0,0,1,2.086,1.909,2,2,0,0,1-1.907,2.087c-.113.006-7.7.425-10.513,4.587a20.988,20.988,0,0,0-3.61,8.268A2,2,0,0,1,83.943,95.924Z"/></g><g id="Linie_118" data-name="Linie 118"><path class="cls-2" d="M146.052,95.393h-9.658a2,2,0,0,1,0-4h9.658a2,2,0,0,1,0,4Z"/></g><g id="Linie_119" data-name="Linie 119"><path class="cls-2" d="M62.993,95.393H53.334a2,2,0,0,1,0-4h9.659a2,2,0,0,1,0,4Z"/></g><g id="Linie_120" data-name="Linie 120"><path class="cls-2" d="M100.659,64.992a2,2,0,0,1-2-2V53.333a2,2,0,0,1,4,0v9.659A2,2,0,0,1,100.659,64.992Z"/></g><g id="Linie_121" data-name="Linie 121"><path class="cls-2" d="M72.934,74.06a2,2,0,0,1-1.414-.585l-6.83-6.831a2,2,0,0,1,2.829-2.828l6.829,6.83a2,2,0,0,1-1.414,3.414Z"/></g><g id="Linie_123" data-name="Linie 123"><path class="cls-2" d="M129.847,74.06a2,2,0,0,1-1.414-3.414l6.829-6.83a2,2,0,0,1,2.828,2.828l-6.829,6.831A2,2,0,0,1,129.847,74.06Z"/></g><g id="Linie_124" data-name="Linie 124"><path class="cls-2" d="M138.775,123.419a1.993,1.993,0,0,1-1-.268l-8.364-4.83a2,2,0,1,1,2-3.464l8.364,4.83a2,2,0,0,1-1,3.732Z"/></g><g id="Linie_125" data-name="Linie 125"><path class="cls-2" d="M61.081,123.419a2,2,0,0,1-1-3.732l8.364-4.83a2,2,0,1,1,2,3.464l-8.364,4.83A1.99,1.99,0,0,1,61.081,123.419Z"/></g></g></g></svg>