<svg id="Ebene_1" data-name="Ebene 1" xmlns="http://www.w3.org/2000/svg" viewBox="0 0 200 200"><defs><style>.cls-1{fill:#fff;}</style></defs><path class="cls-1" d="M144.806,0H55.191A55.255,55.255,0,0,0,0,55.193v89.614A55.255,55.255,0,0,0,55.191,200h89.615A55.255,55.255,0,0,0,200,144.807V55.193A55.254,55.254,0,0,0,144.806,0Zm37.45,144.807a37.491,37.491,0,0,1-37.449,37.448H55.191a37.489,37.489,0,0,1-37.447-37.448V55.193A37.491,37.491,0,0,1,55.191,17.745h89.615a37.492,37.492,0,0,1,37.449,37.448v89.614Z"/><path class="cls-1" d="M100,48.467A51.534,51.534,0,1,0,151.534,100,51.593,51.593,0,0,0,100,48.467Zm0,85.322A33.789,33.789,0,1,1,133.789,100,33.827,33.827,0,0,1,100,133.789Z"/><path class="cls-1" d="M153.7,33.421a13,13,0,1,0,9.2,3.809A13.064,13.064,0,0,0,153.7,33.421Z"/></svg>