<svg id="Ebene_1" data-name="Ebene 1" xmlns="http://www.w3.org/2000/svg" viewBox="0 0 200 200"><defs><style>.cls-1{fill:#fff;}.cls-2{fill:#c0c9cf;}</style></defs><g id="Gruppe_239" data-name="Gruppe 239"><g id="Gruppe_154" data-name="Gruppe 154"><g id="Pfad_245" data-name="Pfad 245"><path class="cls-1" d="M180.588,123.328,163.1,117.36V82.108l17.485,5.968Z"/><path class="cls-2" d="M180.588,124.828a1.493,1.493,0,0,1-.484-.08l-17.486-5.968a1.5,1.5,0,0,1-1.015-1.42V82.108a1.5,1.5,0,0,1,1.984-1.419l17.485,5.968a1.5,1.5,0,0,1,1.016,1.419v35.252a1.5,1.5,0,0,1-1.5,1.5ZM164.6,116.287l14.485,4.944V89.149L164.6,84.205Z"/></g><g id="Pfad_245-2" data-name="Pfad 245-2"><path class="cls-1" d="M146.055,123.328l16.611-5.968V82.108l-16.611,5.968Z"/><path class="cls-2" d="M146.055,124.828a1.5,1.5,0,0,1-1.5-1.5V88.076a1.5,1.5,0,0,1,.993-1.411L162.159,80.7a1.5,1.5,0,0,1,2.007,1.411V117.36a1.5,1.5,0,0,1-.993,1.412l-16.611,5.968A1.5,1.5,0,0,1,146.055,124.828Zm1.5-35.7V121.2l13.611-4.89V84.241Z"/></g><g id="Pfad_245-3" data-name="Pfad 245-3"><path class="cls-1" d="M145.963,123.328l-17.485-5.968V82.108l17.485,5.968Z"/><path class="cls-2" d="M145.963,124.828a1.493,1.493,0,0,1-.484-.08l-17.486-5.968a1.5,1.5,0,0,1-1.015-1.42V82.108a1.5,1.5,0,0,1,1.984-1.419l17.485,5.968a1.5,1.5,0,0,1,1.016,1.419v35.252a1.5,1.5,0,0,1-1.5,1.5Zm-15.985-8.541,14.485,4.944V89.149l-14.485-4.944Z"/></g></g><g id="Gruppe_155" data-name="Gruppe 155"><g id="Pfad_261" data-name="Pfad 261"><path class="cls-1" d="M135.077,124.855h28.509l16.77,10.833H151.847Z"/><path class="cls-2" d="M180.355,137.188H151.847a1.5,1.5,0,0,1-.814-.24l-16.769-10.833a1.5,1.5,0,0,1,.813-2.76h28.509a1.493,1.493,0,0,1,.813.241l16.77,10.833a1.5,1.5,0,0,1-.814,2.759Zm-28.066-3H175.27l-12.126-7.833H140.163Z"/></g><g id="Pfad_264" data-name="Pfad 264"><path class="cls-1" d="M135.984,120.887h28.509l16.77,10.833H152.754Z"/><path class="cls-2" d="M181.263,133.22H152.754a1.5,1.5,0,0,1-.814-.24l-16.77-10.833a1.5,1.5,0,0,1,.813-2.76h28.51a1.507,1.507,0,0,1,.814.24l16.769,10.833a1.5,1.5,0,0,1-.813,2.76Zm-28.067-3h22.981l-12.126-7.833H141.07Z"/></g></g><g id="Gruppe_156" data-name="Gruppe 156"><g id="Pfad_247" data-name="Pfad 247"><path class="cls-2" d="M67.7,66.917a1.5,1.5,0,0,1-1.187-.582l-5.851-7.561a1.5,1.5,0,0,1,.126-1.978l1.951-1.951a1.5,1.5,0,0,1,1.7-.3l2.186,1.037a1.5,1.5,0,0,1,.828,1.058l1.714,8.475a1.5,1.5,0,0,1-1.47,1.8ZM63.84,57.983l1.112,1.438-.292-1.445-.552-.262Z"/></g><g id="Rechteck_120" data-name="Rechteck 120"><rect class="cls-1" x="63.796" y="55.905" width="59.39" height="68.474"/><path class="cls-2" d="M123.186,125.879H63.8a1.5,1.5,0,0,1-1.5-1.5V55.905a1.5,1.5,0,0,1,1.5-1.5h59.39a1.5,1.5,0,0,1,1.5,1.5v68.474A1.5,1.5,0,0,1,123.186,125.879Zm-57.89-3h56.39V57.405H65.3Z"/></g><g id="Pfad_244" data-name="Pfad 244"><path class="cls-1" d="M109.722,141.147,61.7,126.474V58l48.022,14.673Z"/><path class="cls-2" d="M109.722,142.647a1.5,1.5,0,0,1-.439-.065L61.262,127.909a1.5,1.5,0,0,1-1.062-1.435V58a1.5,1.5,0,0,1,1.939-1.434L110.16,71.24a1.5,1.5,0,0,1,1.062,1.434v68.473a1.5,1.5,0,0,1-1.5,1.5ZM63.2,125.364l45.022,13.757V73.785L63.2,60.028Z"/></g><g id="Pfad_245-4" data-name="Pfad 245-4"><path class="cls-1" d="M136.878,139.051,122.9,124.379V55.905l13.974,14.673Z"/><path class="cls-2" d="M136.878,140.551a1.5,1.5,0,0,1-1.086-.465l-13.974-14.672a1.5,1.5,0,0,1-.414-1.035V55.905a1.5,1.5,0,0,1,2.586-1.034l13.974,14.672a1.507,1.507,0,0,1,.414,1.035v68.473a1.5,1.5,0,0,1-1.5,1.5ZM124.4,123.779,135.378,135.3V71.178L124.4,59.655Z"/></g></g><g id="Gruppe_157" data-name="Gruppe 157"><g id="Pfad_249" data-name="Pfad 249"><path class="cls-1" d="M87.186,99.61l-50.78-4.668V126.68l50.78,4.668Z"/><path class="cls-2" d="M87.186,132.848q-.069,0-.138-.006l-50.779-4.668a1.5,1.5,0,0,1-1.363-1.494V94.942a1.5,1.5,0,0,1,1.638-1.493l50.779,4.668a1.5,1.5,0,0,1,1.363,1.493v31.738a1.5,1.5,0,0,1-1.5,1.5Zm-49.28-7.536,47.78,4.392V100.979l-47.78-4.393Z"/></g><g id="Pfad_243" data-name="Pfad 243"><path class="cls-1" d="M74.331,141.148l12.855-9.8V99.609l-12.855,9.8Z"/><path class="cls-2" d="M74.331,142.648a1.5,1.5,0,0,1-1.5-1.5V109.409a1.5,1.5,0,0,1,.591-1.193l12.854-9.8a1.5,1.5,0,0,1,2.41,1.192v31.739a1.5,1.5,0,0,1-.591,1.193l-12.855,9.8A1.5,1.5,0,0,1,74.331,142.648Zm1.5-32.5v27.967l9.855-7.514V102.639Z"/></g><g id="Pfad_250" data-name="Pfad 250"><path class="cls-1" d="M23.551,136.481l12.855-9.8V94.942l-12.855,9.8Z"/><path class="cls-2" d="M23.551,137.981a1.5,1.5,0,0,1-1.5-1.5V104.742a1.5,1.5,0,0,1,.591-1.193L35.5,93.75a1.5,1.5,0,0,1,2.409,1.192v31.739a1.5,1.5,0,0,1-.591,1.193l-12.855,9.8A1.5,1.5,0,0,1,23.551,137.981Zm1.5-32.5v27.967l9.855-7.514V97.972Z"/></g><g id="Pfad_248" data-name="Pfad 248"><path class="cls-1" d="M74.331,109.411l-50.78-4.668v31.738l50.78,4.668Z"/><path class="cls-2" d="M74.331,142.649q-.069,0-.138-.006l-50.78-4.668a1.5,1.5,0,0,1-1.362-1.494V104.743a1.5,1.5,0,0,1,1.637-1.493l50.781,4.667a1.5,1.5,0,0,1,1.362,1.494v31.738a1.5,1.5,0,0,1-1.5,1.5Zm-49.28-7.536,47.78,4.392V110.78l-47.78-4.393Z"/></g><g id="Pfad_243-2" data-name="Pfad 243-2"><path class="cls-1" d="M25.1,79.817,36.345,95.032l50.841,4.577L75.945,84.394Z"/><path class="cls-2" d="M87.186,101.109c-.044,0-.089,0-.135,0L36.21,96.526a1.492,1.492,0,0,1-1.071-.6L23.9,80.708a1.5,1.5,0,0,1-.1-1.625,1.478,1.478,0,0,1,1.442-.76L76.08,82.9a1.5,1.5,0,0,1,1.071.6L88.392,98.718a1.5,1.5,0,0,1-1.206,2.391ZM37.15,93.6,84,97.816,75.14,85.828,28.293,81.611Z"/></g><g id="Pfad_243-3" data-name="Pfad 243-3"><path class="cls-1" d="M17.841,84.66l7.206-4.96,50.841,4.577-7.206,4.96Z"/><path class="cls-2" d="M68.682,90.737q-.068,0-.135-.006L17.706,86.154a1.5,1.5,0,0,1-.716-2.73L24.2,78.465a1.529,1.529,0,0,1,.986-.259l50.84,4.577a1.5,1.5,0,0,1,.716,2.73l-7.206,4.96A1.5,1.5,0,0,1,68.682,90.737Zm-46.567-7.2L68.277,87.7l3.336-2.3L25.451,81.243Z"/></g></g><g id="Gruppe_158" data-name="Gruppe 158"><g id="Pfad_243-4" data-name="Pfad 243-4"><path class="cls-1" d="M83.208,142.762l10.428-7.95L87.18,109.068l-10.428,7.951Z"/><path class="cls-2" d="M83.208,144.262a1.5,1.5,0,0,1-1.455-1.135L75.3,117.384a1.5,1.5,0,0,1,.546-1.557l10.428-7.952a1.5,1.5,0,0,1,2.364.829l6.456,25.744a1.5,1.5,0,0,1-.546,1.557l-10.428,7.95A1.5,1.5,0,0,1,83.208,144.262Zm-4.761-26.649,5.662,22.576,7.831-5.97-5.662-22.577Z"/></g><g id="Pfad_243-5" data-name="Pfad 243-5"><path class="cls-1" d="M88.857,144.376l10.431-7.95L88.8,111.489,78.369,119.44Z"/><path class="cls-2" d="M88.856,145.876a1.5,1.5,0,0,1-1.382-.918L76.986,120.022a1.5,1.5,0,0,1,.474-1.774L87.888,110.3a1.5,1.5,0,0,1,2.292.612l10.491,24.937a1.5,1.5,0,0,1-.474,1.774l-10.431,7.95A1.5,1.5,0,0,1,88.856,145.876ZM80.2,119.929l9.286,22.08,7.967-6.071-9.289-22.081Z"/></g></g></g></svg>