<svg id="Ebene_1" data-name="Ebene 1" xmlns="http://www.w3.org/2000/svg" viewBox="0 0 200 200"><defs><style>.cls-1{fill:#fff}.cls-2{fill:#c0c9cf}</style></defs><g id="Gruppe_239" data-name="Gruppe 239"><g id="Gruppe_154" data-name="Gruppe 154"><g id="Pfad_245" data-name="Pfad 245"><path class="cls-1" d="M180.588 123.328L163.1 117.36V82.108l17.485 5.968z"/><path class="cls-2" d="M180.588 124.828a1.493 1.493 0 01-.484-.08l-17.486-5.968a1.5 1.5 0 01-1.015-1.42V82.108a1.5 1.5 0 011.984-1.419l17.485 5.968a1.5 1.5 0 011.016 1.419v35.252a1.5 1.5 0 01-1.5 1.5zm-15.988-8.541l14.485 4.944V89.149L164.6 84.205z"/></g><g id="Pfad_245-2" data-name="Pfad 245-2"><path class="cls-1" d="M146.055 123.328l16.611-5.968V82.108l-16.611 5.968z"/><path class="cls-2" d="M146.055 124.828a1.5 1.5 0 01-1.5-1.5V88.076a1.5 1.5 0 01.993-1.411l16.611-5.965a1.5 1.5 0 012.007 1.411v35.249a1.5 1.5 0 01-.993 1.412l-16.611 5.968a1.5 1.5 0 01-.507.088zm1.5-35.7V121.2l13.611-4.89V84.241z"/></g><g id="Pfad_245-3" data-name="Pfad 245-3"><path class="cls-1" d="M145.963 123.328l-17.485-5.968V82.108l17.485 5.968z"/><path class="cls-2" d="M145.963 124.828a1.493 1.493 0 01-.484-.08l-17.486-5.968a1.5 1.5 0 01-1.015-1.42V82.108a1.5 1.5 0 011.984-1.419l17.485 5.968a1.5 1.5 0 011.016 1.419v35.252a1.5 1.5 0 01-1.5 1.5zm-15.985-8.541l14.485 4.944V89.149l-14.485-4.944z"/></g></g><g id="Gruppe_155" data-name="Gruppe 155"><g id="Pfad_261" data-name="Pfad 261"><path class="cls-1" d="M135.077 124.855h28.509l16.77 10.833h-28.509z"/><path class="cls-2" d="M180.355 137.188h-28.508a1.5 1.5 0 01-.814-.24l-16.769-10.833a1.5 1.5 0 01.813-2.76h28.509a1.493 1.493 0 01.813.241l16.77 10.833a1.5 1.5 0 01-.814 2.759zm-28.066-3h22.981l-12.126-7.833h-22.981z"/></g><g id="Pfad_264" data-name="Pfad 264"><path class="cls-1" d="M135.984 120.887h28.509l16.77 10.833h-28.509z"/><path class="cls-2" d="M181.263 133.22h-28.509a1.5 1.5 0 01-.814-.24l-16.77-10.833a1.5 1.5 0 01.813-2.76h28.51a1.507 1.507 0 01.814.24l16.769 10.833a1.5 1.5 0 01-.813 2.76zm-28.067-3h22.981l-12.126-7.833H141.07z"/></g></g><g id="Gruppe_156" data-name="Gruppe 156"><path class="cls-2" d="M67.7 66.917a1.5 1.5 0 01-1.187-.582l-5.851-7.561a1.5 1.5 0 01.126-1.978l1.951-1.951a1.5 1.5 0 011.7-.3l2.186 1.037a1.5 1.5 0 01.828 1.058l1.714 8.475a1.5 1.5 0 01-1.47 1.8zm-3.86-8.934l1.112 1.438-.292-1.445-.552-.262z" id="Pfad_247" data-name="Pfad 247"/><g id="Rechteck_120" data-name="Rechteck 120"><path class="cls-1" d="M63.796 55.905h59.39v68.474h-59.39z"/><path class="cls-2" d="M123.186 125.879H63.8a1.5 1.5 0 01-1.5-1.5V55.905a1.5 1.5 0 011.5-1.5h59.39a1.5 1.5 0 011.5 1.5v68.474a1.5 1.5 0 01-1.504 1.5zm-57.89-3h56.39V57.405H65.3z"/></g><g id="Pfad_244" data-name="Pfad 244"><path class="cls-1" d="M109.722 141.147L61.7 126.474V58l48.022 14.673z"/><path class="cls-2" d="M109.722 142.647a1.5 1.5 0 01-.439-.065l-48.021-14.673a1.5 1.5 0 01-1.062-1.435V58a1.5 1.5 0 011.939-1.434L110.16 71.24a1.5 1.5 0 011.062 1.434v68.473a1.5 1.5 0 01-1.5 1.5zM63.2 125.364l45.022 13.757V73.785L63.2 60.028z"/></g><g id="Pfad_245-4" data-name="Pfad 245-4"><path class="cls-1" d="M136.878 139.051L122.9 124.379V55.905l13.974 14.673z"/><path class="cls-2" d="M136.878 140.551a1.5 1.5 0 01-1.086-.465l-13.974-14.672a1.5 1.5 0 01-.414-1.035V55.905a1.5 1.5 0 012.586-1.034l13.974 14.672a1.507 1.507 0 01.414 1.035v68.473a1.5 1.5 0 01-1.5 1.5zM124.4 123.779l10.978 11.521V71.178L124.4 59.655z"/></g></g><g id="Gruppe_157" data-name="Gruppe 157"><g id="Pfad_249" data-name="Pfad 249"><path class="cls-1" d="M87.186 99.61l-50.78-4.668v31.738l50.78 4.668z"/><path class="cls-2" d="M87.186 132.848q-.069 0-.138-.006l-50.779-4.668a1.5 1.5 0 01-1.363-1.494V94.942a1.5 1.5 0 011.638-1.493l50.779 4.668a1.5 1.5 0 011.363 1.493v31.738a1.5 1.5 0 01-1.5 1.5zm-49.28-7.536l47.78 4.392v-28.725l-47.78-4.393z"/></g><g id="Pfad_243" data-name="Pfad 243"><path class="cls-1" d="M74.331 141.148l12.855-9.8V99.609l-12.855 9.8z"/><path class="cls-2" d="M74.331 142.648a1.5 1.5 0 01-1.5-1.5v-31.739a1.5 1.5 0 01.591-1.193l12.854-9.8a1.5 1.5 0 012.41 1.192v31.739a1.5 1.5 0 01-.591 1.193l-12.855 9.8a1.5 1.5 0 01-.909.308zm1.5-32.5v27.967l9.855-7.514v-27.962z"/></g><g id="Pfad_250" data-name="Pfad 250"><path class="cls-1" d="M23.551 136.481l12.855-9.8V94.942l-12.855 9.8z"/><path class="cls-2" d="M23.551 137.981a1.5 1.5 0 01-1.5-1.5v-31.739a1.5 1.5 0 01.591-1.193L35.5 93.75a1.5 1.5 0 012.409 1.192v31.739a1.5 1.5 0 01-.591 1.193l-12.855 9.8a1.5 1.5 0 01-.912.307zm1.5-32.5v27.967l9.855-7.514V97.972z"/></g><g id="Pfad_248" data-name="Pfad 248"><path class="cls-1" d="M74.331 109.411l-50.78-4.668v31.738l50.78 4.668z"/><path class="cls-2" d="M74.331 142.649q-.069 0-.138-.006l-50.78-4.668a1.5 1.5 0 01-1.362-1.494v-31.738a1.5 1.5 0 011.637-1.493l50.781 4.667a1.5 1.5 0 011.362 1.494v31.738a1.5 1.5 0 01-1.5 1.5zm-49.28-7.536l47.78 4.392V110.78l-47.78-4.393z"/></g><g id="Pfad_243-2" data-name="Pfad 243-2"><path class="cls-1" d="M25.1 79.817l11.245 15.215 50.841 4.577-11.241-15.215z"/><path class="cls-2" d="M87.186 101.109h-.135L36.21 96.526a1.492 1.492 0 01-1.071-.6L23.9 80.708a1.5 1.5 0 01-.1-1.625 1.478 1.478 0 011.442-.76L76.08 82.9a1.5 1.5 0 011.071.6l11.241 15.218a1.5 1.5 0 01-1.206 2.391zM37.15 93.6L84 97.816l-8.86-11.988-46.847-4.217z"/></g><g id="Pfad_243-3" data-name="Pfad 243-3"><path class="cls-1" d="M17.841 84.66l7.206-4.96 50.841 4.577-7.206 4.96z"/><path class="cls-2" d="M68.682 90.737q-.068 0-.135-.006l-50.841-4.577a1.5 1.5 0 01-.716-2.73l7.21-4.959a1.529 1.529 0 01.986-.259l50.84 4.577a1.5 1.5 0 01.716 2.73l-7.206 4.96a1.5 1.5 0 01-.854.264zm-46.567-7.2L68.277 87.7l3.336-2.3-46.162-4.157z"/></g></g><g id="Gruppe_158" data-name="Gruppe 158"><g id="Pfad_243-4" data-name="Pfad 243-4"><path class="cls-1" d="M83.208 142.762l10.428-7.95-6.456-25.744-10.428 7.951z"/><path class="cls-2" d="M83.208 144.262a1.5 1.5 0 01-1.455-1.135L75.3 117.384a1.5 1.5 0 01.546-1.557l10.428-7.952a1.5 1.5 0 012.364.829l6.456 25.744a1.5 1.5 0 01-.546 1.557l-10.428 7.95a1.5 1.5 0 01-.912.307zm-4.761-26.649l5.662 22.576 7.831-5.97-5.662-22.577z"/></g><g id="Pfad_243-5" data-name="Pfad 243-5"><path class="cls-1" d="M88.857 144.376l10.431-7.95L88.8 111.489l-10.431 7.951z"/><path class="cls-2" d="M88.856 145.876a1.5 1.5 0 01-1.382-.918l-10.488-24.936a1.5 1.5 0 01.474-1.774l10.428-7.948a1.5 1.5 0 012.292.612l10.491 24.937a1.5 1.5 0 01-.474 1.774l-10.431 7.95a1.5 1.5 0 01-.91.303zM80.2 119.929l9.286 22.08 7.967-6.071-9.289-22.081z"/></g></g></g></svg>