<?xml version="1.0" encoding="utf-8"?>
<!-- Generator: Adobe Illustrator 24.3.0, SVG Export Plug-In . SVG Version: 6.00 Build 0)  -->
<svg version="1.1" id="Ebene_1" xmlns="http://www.w3.org/2000/svg" xmlns:xlink="http://www.w3.org/1999/xlink" x="0px" y="0px"
	 viewBox="0 0 200 200" style="enable-background:new 0 0 200 200;" xml:space="preserve">
<style type="text/css">
	.st0{fill:#656565;}
	.st1{fill:#00B0EB;}
	.st2{fill:#FFFFFF;}
	.st3{fill:#EA5197;}
	.st4{fill:#969696;}
	.st5{fill:#FFEF42;}
	.st6{fill:#4C8C8C;}
	.st7{opacity:0.579;}
	.st8{fill:none;}
	.st9{fill:#231F20;}
	.st10{clip-path:url(#SVGID_2_);}
	.st11{clip-path:url(#SVGID_4_);}
	.st12{fill:#C0C9CF;}
	.st13{opacity:0.3;fill:#00B0EB;}
</style>
<g id="icn_print" transform="translate(1.855 28.75) rotate(-16)">
	<g id="Gruppe_79" transform="translate(0 0)">
		<g id="Gruppe_71" transform="translate(0 0)">
			<g id="Pfad_79">
				<path class="st12" d="M34.701,87.166c-2.166-0.621-4.124-2.277-5.646-4.813c-1.825-3.041-2.831-7.053-2.83-11.297
					s1.005-8.255,2.83-11.296c1.968-3.281,4.668-5.088,7.601-5.088c0.1,0,0.199,0.002,0.297,0.006
					c0.045-0.004,0.09-0.006,0.136-0.006l82.381,0c0.375,0,0.736,0.139,1.013,0.394c0.14,0.129,13.893,13.07,0.179,31.003
					c-0.284,0.371-0.725,0.589-1.191,0.589l-79.559,0c-1.031,0.516-2.126,0.784-3.254,0.784
					C35.991,87.441,35.337,87.348,34.701,87.166z M37.779,57.832c-0.368-0.105-0.742-0.16-1.123-0.16
					c-1.838,0-3.624,1.289-5.029,3.632c-1.549,2.581-2.402,6.045-2.402,9.752s0.853,7.172,2.402,9.753
					c1.406,2.343,3.192,3.631,5.029,3.632l0,0c0.629,0,1.252-0.151,1.855-0.443c0.141-0.116,0.303-0.206,0.48-0.265
					c0.98-0.608,1.898-1.597,2.694-2.923c1.549-2.582,2.402-6.046,2.402-9.753C44.087,64.487,41.297,58.841,37.779,57.832z
					 M42.747,57.672c2.645,2.944,4.34,7.796,4.34,13.384c0,4.244-1.005,8.256-2.83,11.297c-0.279,0.464-0.572,0.899-0.879,1.304
					l75.341,0c10.216-13.927,2.12-23.888,0.131-25.985L42.747,57.672z"/>
			</g>
		</g>
		<g id="Gruppe_72" transform="translate(5.358 8.931)">
			<g id="Pfad_80">
				<path class="st12" d="M30.285,69.438c-2.343-0.672-4.06-3.643-4.06-7.311c0-4.18,2.228-7.454,5.072-7.454
					c2.843,0.003,5.073,3.274,5.073,7.454c0,4.18-2.228,7.454-5.072,7.454c0,0,0,0,0,0C30.95,69.58,30.611,69.531,30.285,69.438z
					 M31.297,68.08l0.009,0.003L31.297,68.08z M31.493,57.701c-0.067-0.019-0.132-0.029-0.196-0.029
					c-0.845,0-2.072,1.735-2.072,4.454c0,2.719,1.227,4.454,2.073,4.454c0.844-0.001,2.071-1.736,2.072-4.455
					C33.369,59.611,32.319,57.938,31.493,57.701z"/>
			</g>
		</g>
		<g id="Gruppe_73" transform="translate(8.93 37.458)">
			<g id="Pfad_81">
				<path class="st12" d="M27.311,87.383c-0.627-0.18-1.086-0.757-1.086-1.442c0-0.829,0.671-1.5,1.5-1.5l0.006,0
					c1.836-0.002,3.619-1.292,5.023-3.631c1.549-2.582,2.402-6.045,2.402-9.753c0.001-7.251-3.402-13.375-7.425-13.385l-0.006,0l0,0
					c-0.827-0.002-1.5-0.671-1.5-1.5c0-0.829,0.671-1.5,1.5-1.5l20.323,0c0.547,0.001,1.054,0.299,1.316,0.781
					c5.13,9.386,7.32,19.977,6.334,30.627c-0.072,0.771-0.719,1.362-1.494,1.362l-26.468,0c-0.004,0-0.007,0-0.011,0
					C27.582,87.441,27.443,87.421,27.311,87.383z M33.816,57.672c2.645,2.944,4.34,7.796,4.34,13.385
					c0,4.244-1.005,8.256-2.83,11.297c-0.469,0.78-0.978,1.478-1.523,2.087l19.015,0c0.612-9.299-1.337-18.507-5.669-26.769
					L33.816,57.672z M106.904,87.383c-0.255-0.073-0.489-0.214-0.676-0.411c-0.283-0.299-0.431-0.701-0.409-1.113
					c0.549-10.078-1.699-20.097-6.5-28.974c-0.251-0.465-0.24-1.027,0.031-1.481c0.27-0.454,0.76-0.732,1.288-0.732l10.129,0
					c0.392,0,0.77,0.154,1.049,0.428c0.134,0.132,13.293,13.368,0.171,31.714c-0.282,0.394-0.736,0.628-1.22,0.628l-3.451,0
					C107.176,87.441,107.037,87.421,106.904,87.383z M103.095,57.672c4.05,8.327,6.034,17.503,5.785,26.769l1.108,0
					c9.806-14.311,2.081-24.559,0.13-26.769L103.095,57.672z"/>
			</g>
		</g>
		<g id="Gruppe_74" transform="translate(23.032 28.986)">
			<g id="Pfad_82">
				<path class="st12" d="M35.146,115.585c-0.329-0.094-0.62-0.3-0.82-0.588c-0.28-0.404-0.344-0.921-0.171-1.381
					c3.913-10.436,7.338-26.172,1.43-41.878c-3.538-9.404-8.829-14.419-8.882-14.469c-0.45-0.421-0.598-1.074-0.372-1.647
					c0.226-0.573,0.778-0.95,1.394-0.95l53.27,0c0.465,0.001,0.9,0.213,1.184,0.579c22.245,28.598,8.147,59.228,8.002,59.534
					c-0.248,0.524-0.776,0.858-1.355,0.858l-53.266,0C35.418,115.643,35.279,115.623,35.146,115.585z M31.042,57.673
					c5.235,6.604,16.831,25.609,6.653,54.97l50.138,0c2.001-4.973,10.884-30.651-7.577-54.972L31.042,57.673z"/>
			</g>
		</g>
		<g id="Gruppe_75" transform="translate(0 37.458)">
			<g id="Pfad_83">
				<path class="st12" d="M34.701,87.166c-2.166-0.621-4.124-2.277-5.646-4.813c-1.825-3.041-2.831-7.053-2.83-11.297
					c0-9.187,4.582-16.384,10.431-16.384c2.936,0.001,5.633,1.808,7.602,5.087c1.825,3.041,2.83,7.053,2.829,11.297
					c0,4.244-1.005,8.256-2.83,11.297c-1.969,3.281-4.668,5.088-7.601,5.088l0,0C35.991,87.441,35.337,87.348,34.701,87.166z
					 M37.773,57.831c-0.368-0.106-0.742-0.159-1.117-0.159c-4.028,0-7.431,6.129-7.431,13.384c0,3.708,0.853,7.172,2.402,9.753
					c1.406,2.343,3.193,3.632,5.029,3.632l0,0c1.838,0,3.624-1.289,5.029-3.631c1.549-2.582,2.402-6.046,2.402-9.754
					c0-3.708-0.853-7.172-2.402-9.753C40.567,59.44,39.208,58.243,37.773,57.831z"/>
			</g>
		</g>
		<g id="Gruppe_76" transform="translate(5.358 46.412)">
			<g id="Pfad_84">
				<path class="st12" d="M30.284,69.437c-1.088-0.312-2.074-1.123-2.798-2.328c-0.812-1.355-1.26-3.124-1.26-4.983
					c0-4.179,2.228-7.454,5.072-7.454c2.843,0.001,5.072,3.275,5.072,7.454c0,4.18-2.228,7.454-5.072,7.454l0,0
					C30.953,69.58,30.614,69.531,30.284,69.437z M31.297,68.08l0.009,0.003L31.297,68.08z M31.493,57.701
					c-0.067-0.019-0.132-0.029-0.196-0.029c-0.844,0-2.072,1.735-2.072,4.454c0,1.303,0.303,2.557,0.833,3.438
					c0.382,0.637,0.846,1.018,1.239,1.016l0,0c0.845,0,2.072-1.735,2.072-4.454C33.369,59.611,32.319,57.938,31.493,57.701z"/>
			</g>
		</g>
	</g>
</g>
</svg>
