<svg id="Ebene_1" data-name="Ebene 1" xmlns="http://www.w3.org/2000/svg" viewBox="0 0 200 200"><defs><clipPath id="clip-path"><path transform="rotate(-16 124.835 100)" fill="none" d="M89.447 76.56h70.773v46.88H89.447z"/></clipPath><style>.cls-4{fill:none}.cls-2{fill:#fff;stroke-linejoin:round}.cls-2,.cls-4{stroke:#c0c9cf;stroke-width:3px}.cls-3{clip-path:url(#clip-path)}.cls-4{stroke-linecap:round}</style></defs><g id="icon-lettershop"><g id="Gruppe_70" data-name="Gruppe 70"><path id="Pfad_49" data-name="Pfad 49" class="cls-2" d="M98.66 130.081l64.308-18.44L151 69.917l-64.3 18.44z"/><g class="cls-3"><g id="Gruppe_47" data-name="Gruppe 47"><path id="Pfad_50" data-name="Pfad 50" class="cls-2" d="M98.437 130.172l64.771-18.572-11.978-41.771L86.46 88.4z"/></g></g><g id="Gruppe_48" data-name="Gruppe 48"><path id="Pfad_52" data-name="Pfad 52" class="cls-2" d="M102.062 129.106l57.506-16.489-37.526-22.352z"/></g><g class="cls-3"><g id="Gruppe_50" data-name="Gruppe 50"><g id="Gruppe_49" data-name="Gruppe 49"><path id="Pfad_53" data-name="Pfad 53" class="cls-2" d="M101.417 129.316l20.756-38.588 38.054 21.725z"/></g></g></g><g id="Gruppe_51" data-name="Gruppe 51"><path id="Pfad_55" data-name="Pfad 55" class="cls-2" d="M90.1 87.384l37.528 22.351L147.6 70.894z"/></g><g class="cls-3"><g id="Gruppe_53" data-name="Gruppe 53"><g id="Gruppe_52" data-name="Gruppe 52"><path id="Pfad_56" data-name="Pfad 56" class="cls-2" d="M89.44 87.548l38.053 21.724 20.757-38.588z"/></g></g></g></g><path id="Pfad_85" data-name="Pfad 85" class="cls-4" d="M76.05 102.582l-29.4 8.43"/><path id="Linie_8" data-name="Linie 8" class="cls-4" d="M68.341 116.678l-33.651 9.649"/><path id="Linie_9" data-name="Linie 9" class="cls-4" d="M78.512 125.647l-17.267 4.952"/></g></svg>