<svg id="Ebene_1" data-name="Ebene 1" xmlns="http://www.w3.org/2000/svg" viewBox="0 0 200 200"><defs><style>.cls-1{fill:#c0c9cf;}</style></defs><g id="icn_print" data-name="icn print"><g id="Gruppe_79" data-name="Gruppe 79"><g id="Gruppe_71" data-name="Gruppe 71"><g id="Pfad_79" data-name="Pfad 79"><path class="cls-1" d="M59.238,102.974a10.078,10.078,0,0,1-6.753-3.07,23.957,23.957,0,0,1-6.228-21.718c.987-3.7,3.084-6.177,5.9-6.986.1-.027.191-.052.287-.075.042-.017.085-.031.129-.044l79.19-22.707a1.492,1.492,0,0,1,1.082.1c.17.085,16.957,8.734,8.717,29.752a1.5,1.5,0,0,1-.983.9L64.106,101.049a7.209,7.209,0,0,1-2.912,1.651A7.1,7.1,0,0,1,59.238,102.974ZM54.112,73.928a4.056,4.056,0,0,0-1.124.156c-1.767.506-3.128,2.238-3.833,4.877a21,21,0,0,0,5.376,18.75c2,1.865,4.069,2.61,5.835,2.105h0a4.234,4.234,0,0,0,1.662-.937,1.487,1.487,0,0,1,.388-.387A8.541,8.541,0,0,0,64.2,94.939,19.235,19.235,0,0,0,63.82,84.9C62.009,78.587,57.771,73.928,54.112,73.928Zm4.731-1.523c3.353,2.1,6.32,6.3,7.861,11.669a22.271,22.271,0,0,1,.394,11.64,14.48,14.48,0,0,1-.486,1.5l72.423-20.767c5.981-16.2-4.547-23.546-7.037-25.015Z"/></g></g><g id="Gruppe_72" data-name="Gruppe 72"><g id="Pfad_80" data-name="Pfad 80"><path class="cls-1" d="M57.718,94.258c-2.437,0-4.906-2.382-5.918-5.909-1.151-4.018.088-7.779,2.821-8.563s5.779,1.748,6.931,5.767-.087,7.779-2.821,8.563h0A3.655,3.655,0,0,1,57.718,94.258Zm.6-1.584h0ZM55.645,82.643a.7.7,0,0,0-.2.027c-.812.233-1.513,2.239-.764,4.853s2.407,3.943,3.22,3.71,1.513-2.24.764-4.853C57.975,83.963,56.5,82.643,55.645,82.643Z"/></g></g><g id="Gruppe_73" data-name="Gruppe 73"><g id="Pfad_81" data-name="Pfad 81"><path class="cls-1" d="M71.1,138.766a1.5,1.5,0,0,1-.413-2.943h0c1.765-.508,3.124-2.239,3.828-4.875a19.236,19.236,0,0,0-.379-10.037c-2-6.971-6.957-11.92-10.826-10.82h-.006a1.5,1.5,0,1,1-.827-2.883l19.535-5.6a1.5,1.5,0,0,1,1.481.387,53.386,53.386,0,0,1,14.53,27.695,1.5,1.5,0,0,1-1.061,1.72l-25.442,7.3-.011,0A1.484,1.484,0,0,1,71.1,138.766Zm-1.936-30.354c3.354,2.1,6.32,6.3,7.861,11.671a22.257,22.257,0,0,1,.394,11.639,13.847,13.847,0,0,1-.889,2.426l18.278-5.242a50.357,50.357,0,0,0-12.827-24.169Zm78.445,8.415a1.5,1.5,0,0,1-1.462-1.166A54.646,54.646,0,0,0,131.916,89.6a1.5,1.5,0,0,1,.658-2.491l9.737-2.792a1.5,1.5,0,0,1,1.126.122c.166.089,16.463,9.187,8.906,30.438a1.5,1.5,0,0,1-1,.94l-3.317.951A1.5,1.5,0,0,1,147.612,116.827Zm-11.851-27.51A57.639,57.639,0,0,1,148.7,113.454l1.066-.3c5.481-16.46-4.769-24.181-7.254-25.768Z"/></g></g><g id="Gruppe_74" data-name="Gruppe 74"><g id="Pfad_82" data-name="Pfad 82"><path class="cls-1" d="M97.628,151.685a1.5,1.5,0,0,1-1.5-1.619c.885-11.111-.16-27.182-10.168-40.65a41.141,41.141,0,0,0-12.526-11.46,1.5,1.5,0,0,1,.266-2.779l51.206-14.684a1.5,1.5,0,0,1,1.3.231c29.266,21.358,24.157,54.688,24.1,55.022a1.5,1.5,0,0,1-1.067,1.2l-51.2,14.683A1.51,1.51,0,0,1,97.628,151.685ZM77.721,97.147c6.852,4.905,23.238,19.977,21.547,51.007l48.2-13.82c.553-5.332,2.014-32.464-22.436-50.753Z"/></g></g><g id="Gruppe_75" data-name="Gruppe 75"><g id="Pfad_83" data-name="Pfad 83"><path class="cls-1" d="M69.563,138.981a10.085,10.085,0,0,1-6.754-3.07,22.254,22.254,0,0,1-5.834-10.079c-2.532-8.832-.112-17.013,5.511-18.625,2.822-.808,5.913.185,8.709,2.8a23.965,23.965,0,0,1,6.228,21.719c-.989,3.7-3.085,6.177-5.905,6.986h0A7.089,7.089,0,0,1,69.563,138.981ZM64.43,109.936a4.017,4.017,0,0,0-1.117.155c-3.872,1.11-5.454,7.94-3.454,14.914a19.241,19.241,0,0,0,5,8.713c2,1.865,4.07,2.611,5.835,2.105h0c1.767-.506,3.128-2.238,3.833-4.877A21,21,0,0,0,69.148,112.2,7.214,7.214,0,0,0,64.43,109.936Z"/></g></g><g id="Gruppe_76" data-name="Gruppe 76"><g id="Pfad_84" data-name="Pfad 84"><path class="cls-1" d="M68.048,130.287a4.961,4.961,0,0,1-3.332-1.467,9.818,9.818,0,0,1-2.584-4.442c-1.152-4.017.087-7.779,2.821-8.563s5.778,1.75,6.93,5.767-.087,7.779-2.821,8.563h0A3.668,3.668,0,0,1,68.048,130.287Zm.6-1.584h0Zm-2.673-10.03a.738.738,0,0,0-.2.025c-.811.233-1.513,2.24-.763,4.853a6.888,6.888,0,0,0,1.748,3.076,1.748,1.748,0,0,0,1.471.634h0c.812-.233,1.513-2.239.764-4.853C68.306,119.991,66.835,118.673,65.976,118.673Z"/></g></g></g></g></svg>