<?xml version="1.0" encoding="utf-8"?>
<!-- Generator: Adobe Illustrator 24.3.0, SVG Export Plug-In . SVG Version: 6.00 Build 0)  -->
<svg version="1.1" id="Ebene_1" xmlns="http://www.w3.org/2000/svg" xmlns:xlink="http://www.w3.org/1999/xlink" x="0px" y="0px"
	 viewBox="0 0 200 200" style="enable-background:new 0 0 200 200;" xml:space="preserve">
<style type="text/css">
	.st0{fill:#656565;}
	.st1{fill:#00B0EB;}
	.st2{fill:#FFFFFF;}
	.st3{fill:#EA5197;}
	.st4{fill:#969696;}
	.st5{fill:#FFEF42;}
	.st6{fill:#4C8C8C;}
	.st7{opacity:0.579;}
	.st8{fill:none;}
	.st9{fill:#231F20;}
	.st10{clip-path:url(#SVGID_2_);}
	.st11{clip-path:url(#SVGID_4_);}
	.st12{fill:#C0C9CF;}
	.st13{opacity:0.3;fill:#00B0EB;}
</style>
<path class="st12" d="M46.649,112.513c0.137,0,0.276-0.019,0.414-0.059l29.4-8.431c0.796-0.229,1.257-1.059,1.028-1.855
	c-0.229-0.796-1.058-1.257-1.855-1.028l-29.4,8.431c-0.796,0.229-1.257,1.059-1.028,1.855
	C45.397,112.084,45.997,112.513,46.649,112.513z"/>
<path class="st12" d="M69.783,116.264c-0.229-0.797-1.062-1.257-1.855-1.028l-33.651,9.649c-0.796,0.229-1.257,1.059-1.028,1.855
	c0.189,0.658,0.789,1.087,1.441,1.087c0.137,0,0.276-0.019,0.415-0.059l33.651-9.649C69.551,117.891,70.011,117.061,69.783,116.264z
	"/>
<path class="st12" d="M78.099,124.206l-17.267,4.951c-0.796,0.229-1.257,1.059-1.028,1.855c0.189,0.658,0.789,1.087,1.441,1.087
	c0.137,0,0.276-0.019,0.414-0.059l17.267-4.951c0.796-0.229,1.257-1.059,1.028-1.855C79.726,124.438,78.894,123.977,78.099,124.206z
	"/>
<path class="st12" d="M164.409,111.227l-11.964-41.724c-0.109-0.382-0.366-0.706-0.714-0.898c-0.349-0.193-0.758-0.239-1.141-0.13
	l-64.309,18.44c-0.382,0.11-0.706,0.367-0.898,0.715c-0.193,0.348-0.24,0.758-0.13,1.141l11.964,41.724
	c0.189,0.658,0.789,1.087,1.441,1.087c0.137,0,0.276-0.019,0.414-0.059l3.396-0.974c0.002,0,0.003,0,0.005-0.001l57.507-16.49
	c0.003-0.001,0.005-0.003,0.008-0.003l3.392-0.973C164.178,112.854,164.638,112.023,164.409,111.227z M144.686,73.292
	l-17.664,34.337L93.845,87.87L144.686,73.292z M101.025,127.842l-1.337,0.383l-11.137-38.84l1.334-0.383l23.821,14.187
	L101.025,127.842z M104.982,126.708l11.307-21.979l10.569,6.295c0.234,0.14,0.5,0.211,0.768,0.211c0.139,0,0.277-0.019,0.413-0.058
	c0.398-0.114,0.731-0.388,0.921-0.756l5.627-10.938l21.234,12.647L104.982,126.708z M159.777,110.995L135.961,96.81l12.683-24.656
	l1.332-0.382l11.137,38.84L159.777,110.995z"/>
</svg>
