<svg id="Ebene_1" data-name="Ebene 1" xmlns="http://www.w3.org/2000/svg" xmlns:xlink="http://www.w3.org/1999/xlink" viewBox="0 0 200 200"><defs><style>.cls-1{fill:none;}.cls-2{fill:#231f20;}.cls-3{clip-path:url(#clip-path);}.cls-4{fill:#fff;}.cls-5{clip-path:url(#clip-path-2);}</style><clipPath id="clip-path"><path class="cls-1" d="M115.373,140.623V59.379h38.645q12.478,0,18.165.546a49.807,49.807,0,0,1,9.782,1.828,22.011,22.011,0,0,1,10.983,7.229,18.9,18.9,0,0,1,3.8,11.918,16.44,16.44,0,0,1-2.839,9.622,20.667,20.667,0,0,1-8.557,6.759q7.5,2.316,11.069,6.948T200,116.241a21.37,21.37,0,0,1-13.624,20.749,38.832,38.832,0,0,1-10.24,2.806,152.367,152.367,0,0,1-19.039.827H115.373m29.367-48.8h12.466c4.191,0,7.138-.526,8.842-1.6s2.554-2.863,2.554-5.4c0-2.692-.916-4.519-2.75-5.517s-6.071-1.487-12.729-1.487H144.74Zm0,29.824h14.015c4.632,0,7.948-.584,9.891-1.768,1.965-1.169,2.949-3.108,2.949-5.782s-1.006-4.593-3.013-5.723q-2.982-1.722-10.088-1.714H144.74Z"/></clipPath><clipPath id="clip-path-2"><path class="cls-1" d="M0,140.623V59.379H38.645q12.478,0,18.165.546a49.865,49.865,0,0,1,9.782,1.828,22,22,0,0,1,10.983,7.229,18.9,18.9,0,0,1,3.8,11.918,16.432,16.432,0,0,1-2.838,9.622,20.67,20.67,0,0,1-8.558,6.759q7.5,2.316,11.069,6.948t3.581,12.012A21.37,21.37,0,0,1,71,136.99a38.832,38.832,0,0,1-10.24,2.806,152.345,152.345,0,0,1-19.039.827H0m29.367-48.8H41.833c4.193,0,7.138-.526,8.843-1.6s2.553-2.863,2.553-5.4c0-2.692-.917-4.519-2.75-5.517S44.41,77.813,37.75,77.813H29.367Zm0,29.824H43.383c4.629,0,7.947-.584,9.89-1.768,1.965-1.169,2.949-3.108,2.949-5.782s-1.006-4.593-3.013-5.723q-2.981-1.722-10.087-1.714H29.367Z"/></clipPath></defs><path class="cls-2" d="M115.373,140.623V59.379h38.645q12.478,0,18.167.546a49.814,49.814,0,0,1,9.78,1.828,22,22,0,0,1,10.983,7.229,18.9,18.9,0,0,1,3.8,11.918,16.434,16.434,0,0,1-2.841,9.622,20.667,20.667,0,0,1-8.557,6.759q7.5,2.316,11.071,6.948T200,116.241a21.37,21.37,0,0,1-13.624,20.749,38.832,38.832,0,0,1-10.24,2.806,152.345,152.345,0,0,1-19.039.827H115.373m29.367-48.8h12.466c4.191,0,7.14-.526,8.844-1.6s2.554-2.863,2.554-5.4c0-2.692-.918-4.519-2.752-5.517s-6.069-1.487-12.727-1.487H144.74Zm0,29.824h14.017c4.63,0,7.948-.584,9.889-1.769,1.967-1.168,2.949-3.107,2.949-5.781s-1-4.593-3.013-5.723q-2.982-1.722-10.088-1.714H144.74Z"/><g class="cls-3"><rect class="cls-4" x="103.438" y="63.245" width="35.424" height="3.214" transform="translate(-15.679 77.539) rotate(-33.457)"/><rect class="cls-4" x="101.757" y="67.975" width="54.568" height="3.214" transform="translate(-16.979 82.673) rotate(-33.457)"/><rect class="cls-4" x="99.319" y="79.203" width="85.656" height="3.214" transform="translate(-20.998 91.759) rotate(-33.457)"/><rect class="cls-4" x="97.709" y="86.384" width="97.234" height="3.214" transform="translate(-24.265 95.252) rotate(-33.457)"/><rect class="cls-4" x="97.654" y="94.059" width="104.287" height="3.214" transform="translate(-27.921 98.439) rotate(-33.457)"/><rect class="cls-4" x="96.694" y="102.905" width="109.456" height="3.214" transform="translate(-32.528 100.8) rotate(-33.457)"/><rect class="cls-4" x="98.895" y="112.047" width="107.478" height="3.214" transform="translate(-37.367 102.983) rotate(-33.457)"/><rect class="cls-4" x="128.446" y="123.237" width="74.703" height="3.214" transform="translate(-41.355 112.094) rotate(-33.457)"/><rect class="cls-4" x="144.911" y="126.904" width="60.772" height="3.214" transform="translate(-41.803 117.939) rotate(-33.457)"/><rect class="cls-4" x="100.382" y="73.338" width="71.184" height="3.214" transform="translate(-18.787 87.384) rotate(-33.457)"/><rect class="cls-4" x="112.819" y="120.52" width="84.082" height="3.214" transform="translate(-41.67 105.614) rotate(-33.457)"/><rect class="cls-4" x="161.667" y="131.764" width="42.643" height="3.214" transform="translate(-43.208 122.985) rotate(-33.457)"/></g><path class="cls-4" d="M65.451,139.679H41.613V60.32H73.7l11.351,39.6c.153.534.457,1.768.893,3.7.436,1.914,1.082,4.561,1.9,7.945.513-2.667.988-4.983,1.445-6.988.438-1.987.836-3.475,1.16-4.487L102.084,60.32h32.034v79.359H110.279l.228-39.063c0-2.372,0-4.671.019-6.915s.057-4.58.093-6.99q-1.338,6.153-3.231,13.427l-.171.7L97.085,139.679H78.7L68.454,101.7c-.475-1.73-.968-3.7-1.443-5.923-.475-2.244-1.121-5.261-1.9-9.068.114,3.422.21,6.346.267,8.793s.075,4.395.075,5.865Z"/><path class="cls-2" d="M135.071,140.633H109.32l.234-40.023q0-2.639.008-5.172-.584,2.364-1.25,4.938l-.168.687-10.321,39.57H77.971L67.534,101.951c-.426-1.549-.81-3.086-1.168-4.664.028,1.629.039,2.987.039,4.083v39.263H40.659V59.367H74.42L85.969,99.653c.156.543.464,1.794.906,3.75q.352,1.543.882,3.731.308-1.476.6-2.776c.409-1.851.818-3.431,1.182-4.568l11.827-40.423h33.7Zm-23.832-1.906h21.925V61.273H102.8L91.366,100.351c-.249.776-.642,2.15-1.144,4.424-.456,2-.929,4.309-1.441,6.964l-.831,4.315-1.423-5.886c-.635-2.626-1.146-4.742-1.511-6.343-.431-1.9-.73-3.119-.88-3.647l-11.153-38.9H42.567v77.454H64.5V101.37c0-1.466-.019-3.407-.076-5.844s-.152-5.365-.265-8.784l-.375-11.255,2.261,11.031c.651,3.178,1.209,5.8,1.652,7.891l.249,1.172c.428,2.006.9,3.927,1.43,5.868l10.058,37.278H96.349L106.462,99.91c1.309-5.058,2.363-9.439,3.225-13.4l2.033-9.342-.159,10.308c-.033,2.143-.065,4.225-.082,6.234-.018,2.241-.018,4.536-.018,6.907Z"/><path class="cls-2" d="M0,140.623V59.379H38.645q12.478,0,18.165.546a49.858,49.858,0,0,1,9.784,1.828,22,22,0,0,1,10.981,7.229,18.9,18.9,0,0,1,3.8,11.918,16.447,16.447,0,0,1-2.838,9.622,20.664,20.664,0,0,1-8.56,6.759q7.5,2.316,11.071,6.948t3.579,12.012A21.372,21.372,0,0,1,71.005,136.99a38.875,38.875,0,0,1-10.24,2.806,152.405,152.405,0,0,1-19.041.827H0m29.367-48.8H41.833c4.193,0,7.138-.526,8.844-1.6s2.554-2.863,2.554-5.4c0-2.692-.917-4.519-2.752-5.517s-6.069-1.487-12.727-1.487H29.367Zm0,29.824H43.385c4.629,0,7.947-.584,9.89-1.769,1.965-1.168,2.947-3.107,2.947-5.781s-1.006-4.593-3.013-5.723q-2.981-1.722-10.087-1.714H29.367Z"/><g class="cls-5"><rect class="cls-4" x="-11.934" y="63.245" width="35.424" height="3.214" transform="translate(-34.797 13.932) rotate(-33.457)"/><rect class="cls-4" x="-13.614" y="67.974" width="54.566" height="3.214" transform="translate(-36.096 19.066) rotate(-33.457)"/><rect class="cls-4" x="-16.055" y="79.202" width="85.658" height="3.214" transform="translate(-40.115 28.151) rotate(-33.457)"/><rect class="cls-4" x="-17.666" y="86.385" width="97.234" height="3.214" transform="translate(-43.383 31.644) rotate(-33.457)"/><rect class="cls-4" x="-17.718" y="94.058" width="104.285" height="3.214" transform="translate(-47.038 34.831) rotate(-33.457)"/><rect class="cls-4" x="-18.676" y="102.904" width="109.455" height="3.214" transform="translate(-51.645 37.194) rotate(-33.457)"/><rect class="cls-4" x="-16.478" y="112.047" width="107.478" height="3.214" transform="translate(-56.485 39.375) rotate(-33.457)"/><rect class="cls-4" x="13.075" y="123.236" width="74.7" height="3.214" transform="translate(-60.472 48.487) rotate(-33.457)"/><rect class="cls-4" x="29.538" y="126.903" width="60.772" height="3.214" transform="translate(-60.92 54.332) rotate(-33.457)"/><rect class="cls-4" x="-14.99" y="73.336" width="71.183" height="3.214" transform="translate(-37.904 23.776) rotate(-33.457)"/><rect class="cls-4" x="-2.553" y="120.519" width="84.08" height="3.214" transform="translate(-60.787 42.007) rotate(-33.457)"/><rect class="cls-4" x="46.295" y="131.764" width="42.643" height="3.214" transform="translate(-62.326 59.378) rotate(-33.457)"/></g></svg>