<svg id="Ebene_1" data-name="Ebene 1" xmlns="http://www.w3.org/2000/svg" xmlns:xlink="http://www.w3.org/1999/xlink" viewBox="0 0 200 200"><defs><style>.cls-1{fill:none;}.cls-2{fill:#fff;}.cls-3{fill:#00b0eb;}.cls-4{clip-path:url(#clip-path);}</style><clipPath id="clip-path"><rect class="cls-1" x="0.093" y="33.569" width="199.821" height="132.866"/></clipPath></defs><g id="Gruppe_54" data-name="Gruppe 54"><g id="Pfad_49" data-name="Pfad 49"><path class="cls-2" d="M5.558,161.507H194.442V38.489H5.558Z"/><path class="cls-3" d="M194.443,167.065H5.557A5.558,5.558,0,0,1,0,161.508V38.489a5.557,5.557,0,0,1,5.557-5.557H194.443A5.557,5.557,0,0,1,200,38.489V161.508A5.558,5.558,0,0,1,194.443,167.065ZM11.114,155.951H188.886V44.046H11.114Z"/></g><g class="cls-4"><g id="Gruppe_47" data-name="Gruppe 47"><g id="Pfad_50" data-name="Pfad 50"><path class="cls-2" d="M4.883,161.585H195.128V38.426H4.883Z"/><path class="cls-3" d="M195.127,167.142H4.884a5.557,5.557,0,0,1-5.557-5.557V38.425a5.558,5.558,0,0,1,5.557-5.557H195.127a5.558,5.558,0,0,1,5.557,5.557v123.16A5.557,5.557,0,0,1,195.127,167.142ZM10.441,156.028H189.57V43.983H10.441Z"/></g></g></g><g id="Gruppe_48" data-name="Gruppe 48"><g id="Pfad_52" data-name="Pfad 52"><path class="cls-2" d="M15.549,161.511H184.454L100.017,71.3Z"/><path class="cls-3" d="M184.454,167.068H15.55a5.557,5.557,0,0,1-4.056-9.356L95.961,67.5a5.555,5.555,0,0,1,4.055-1.758h0a5.55,5.55,0,0,1,4.056,1.76l84.438,90.21a5.556,5.556,0,0,1-4.056,9.354ZM28.364,155.954H171.639L100.016,79.432Z"/></g></g><g class="cls-4"><g id="Gruppe_50" data-name="Gruppe 50"><g id="Gruppe_49" data-name="Gruppe 49"><g id="Pfad_53" data-name="Pfad 53"><path class="cls-2" d="M13.634,161.581,100,72.668l86.372,88.913Z"/><path class="cls-3" d="M186.368,167.139H13.632a5.557,5.557,0,0,1-3.987-9.428L96.011,68.8a5.722,5.722,0,0,1,7.974,0l86.37,88.913a5.557,5.557,0,0,1-3.987,9.428ZM26.776,156.025H173.224L100,80.644Z"/></g></g></g></g><g id="Gruppe_51" data-name="Gruppe 51"><g id="Pfad_55" data-name="Pfad 55"><path class="cls-2" d="M15.545,38.5l84.468,90.21L184.458,38.5Z"/><path class="cls-3" d="M100.013,134.263a5.555,5.555,0,0,1-4.056-1.758L11.49,42.3a5.558,5.558,0,0,1,4.056-9.356H184.458a5.556,5.556,0,0,1,4.055,9.354L104.068,132.5A5.549,5.549,0,0,1,100.013,134.263ZM28.361,44.053l71.652,76.522,71.63-76.522Z"/></g></g><g class="cls-4"><g id="Gruppe_53" data-name="Gruppe 53"><g id="Gruppe_52" data-name="Gruppe 52"><g id="Pfad_56" data-name="Pfad 56"><path class="cls-2" d="M13.634,38.426l86.371,88.913L186.37,38.426Z"/><path class="cls-3" d="M100.005,132.9a5.564,5.564,0,0,1-3.986-1.685L9.645,42.3a5.558,5.558,0,0,1,3.987-9.43H186.368a5.557,5.557,0,0,1,3.987,9.429L103.992,131.21A5.554,5.554,0,0,1,100.005,132.9ZM26.78,43.983l73.225,75.38,73.219-75.38Z"/></g></g></g></g></g></svg>