<svg id="Ebene_1" data-name="Ebene 1" xmlns="http://www.w3.org/2000/svg" viewBox="0 0 200 200"><defs><style>.cls-1{fill:#fff;}.cls-2{fill:#ea5197;}</style></defs><g id="Lettershop"><circle id="BG" class="cls-1" cx="100" cy="100" r="100"/><g id="icn_versand" data-name="icn versand"><g id="Pfad_49" data-name="Pfad 49"><path class="cls-1" d="M65.24,139.976l85.458-24.5L134.8,60.027l-85.457,24.5Z"/><path class="cls-2" d="M65.238,142.643a2.669,2.669,0,0,1-2.562-1.932l-15.9-55.445a2.667,2.667,0,0,1,1.83-3.3l85.458-24.5a2.667,2.667,0,0,1,3.3,1.828l15.9,55.444a2.669,2.669,0,0,1-1.83,3.3l-85.458,24.5A2.675,2.675,0,0,1,65.238,142.643Zm-12.6-56.284,14.429,50.318L147.4,113.643,132.971,63.326Z"/></g><g id="Pfad_52" data-name="Pfad 52"><path class="cls-1" d="M69.761,138.68l76.415-21.912-49.865-29.7Z"/><path class="cls-2" d="M69.76,141.346a2.666,2.666,0,0,1-2.371-3.886L93.94,85.847a2.668,2.668,0,0,1,3.736-1.071l49.864,29.7a2.667,2.667,0,0,1-.63,4.855L70.5,141.243A2.7,2.7,0,0,1,69.76,141.346ZM97.384,90.81,74.952,134.417,139.514,115.9Z"/></g><g id="Pfad_206" data-name="Pfad 206"><path class="cls-1" d="M52.988,83.456l50.566,28.868,27.582-51.277Z"/><path class="cls-2" d="M103.555,114.991a2.673,2.673,0,0,1-1.322-.35L51.667,85.771a2.666,2.666,0,0,1,.586-4.878L130.4,58.484a2.666,2.666,0,0,1,3.084,3.826L105.9,113.587a2.665,2.665,0,0,1-2.349,1.4ZM59.8,84.275l42.7,24.377,23.291-43.3Z"/></g></g></g></svg>