<svg id="Ebene_1" data-name="Ebene 1" xmlns="http://www.w3.org/2000/svg" viewBox="0 0 200 200"><defs><style>.cls-1{fill:#fff;}.cls-2{fill:#ea5197;}.cls-3{opacity:0.297;}</style></defs><g id="Personalisierung"><circle id="BG" class="cls-1" cx="100" cy="100" r="100"/><g id="frame"><g id="Pfad_201" data-name="Pfad 201"><path class="cls-2" d="M49.334,70.761A2.667,2.667,0,0,1,46.667,68.1V49.332a2.667,2.667,0,0,1,2.667-2.667H68.1A2.667,2.667,0,1,1,68.1,52H52V68.1A2.667,2.667,0,0,1,49.334,70.761Z"/></g><g id="Pfad_204" data-name="Pfad 204"><path class="cls-2" d="M150.979,153.7H132.218a2.667,2.667,0,0,1,0-5.334h16.1V132.267a2.667,2.667,0,0,1,5.333,0v18.762A2.667,2.667,0,0,1,150.979,153.7Z"/></g><g id="Pfad_202" data-name="Pfad 202"><path class="cls-2" d="M68.1,153.7H49.334a2.667,2.667,0,0,1-2.667-2.667V132.267a2.667,2.667,0,0,1,5.333,0v16.1H68.1a2.667,2.667,0,0,1,0,5.334Z"/></g><g id="Pfad_203" data-name="Pfad 203"><path class="cls-2" d="M150.979,70.768a2.667,2.667,0,0,1-2.666-2.667V52H132.218a2.667,2.667,0,1,1,0-5.333h18.761a2.667,2.667,0,0,1,2.667,2.667V68.1A2.667,2.667,0,0,1,150.979,70.768Z"/></g></g><g id="user"><g id="Ellipse_13" data-name="Ellipse 13"><circle class="cls-1" cx="99.997" cy="78.667" r="16"/><path class="cls-2" d="M100,94.667a16,16,0,1,1,16-16A16.018,16.018,0,0,1,100,94.667ZM100,68a10.667,10.667,0,1,0,10.666,10.666A10.679,10.679,0,0,0,100,68Z"/></g><g id="Pfad_205" data-name="Pfad 205"><path class="cls-1" d="M99.605,134.3c-6.825,0-13.406-.982-18.057-2.694a15.883,15.883,0,0,1-5.342-3.007,4.2,4.2,0,0,1-1.539-3.066,24.939,24.939,0,0,1,49.877,0A4.2,4.2,0,0,1,123,128.6a15.883,15.883,0,0,1-5.342,3.007C113.012,133.317,106.43,134.3,99.605,134.3Z"/><path class="cls-2" d="M99.605,103.26a22.273,22.273,0,0,0-22.272,22.272c0,.114,0,.461.706,1.129a12.87,12.87,0,0,0,4.43,2.442c4.367,1.608,10.613,2.53,17.136,2.53s12.769-.922,17.136-2.53a12.87,12.87,0,0,0,4.43-2.442c.706-.668.706-1.015.706-1.129A22.271,22.271,0,0,0,99.605,103.26m0-5.333a27.6,27.6,0,0,1,27.6,27.6c0,7.623-13.8,11.434-27.6,11.434S72,133.155,72,125.532A27.6,27.6,0,0,1,99.605,97.927Z"/></g></g></g></svg>