<svg id="Ebene_1" data-name="Ebene 1" xmlns="http://www.w3.org/2000/svg" viewBox="0 0 200 200"><defs><style>.cls-1{fill:#969696;}.cls-2{fill:#ffef42;}</style></defs><g id="Gruppe_166" data-name="Gruppe 166"><g id="Lettershop"><circle id="BG" class="cls-1" cx="100" cy="100" r="100"/></g><g id="Gruppe_163" data-name="Gruppe 163"><g id="Linie_131" data-name="Linie 131"><path class="cls-2" d="M116.978,77.2h-9.169a2,2,0,0,1,0-4h9.169a2,2,0,1,1,0,4Z"/></g><g id="Linie_132" data-name="Linie 132"><path class="cls-2" d="M126.943,127.262a2,2,0,0,1-2-2v-9.17a2,2,0,0,1,4,0v9.17A2,2,0,0,1,126.943,127.262Z"/></g><g id="Linie_133" data-name="Linie 133"><path class="cls-2" d="M126.944,48.41a2,2,0,0,1-1.934-2.519l2.308-8.6a2,2,0,0,1,3.864,1.037l-2.307,8.6A2,2,0,0,1,126.944,48.41Z"/></g><g id="Linie_134" data-name="Linie 134"><path class="cls-2" d="M72.6,48.337a2,2,0,0,1-1.939-1.517l-2.126-8.531a2,2,0,1,1,3.88-.967l2.127,8.53a2,2,0,0,1-1.457,2.425A2.025,2.025,0,0,1,72.6,48.337Z"/></g><g id="Linie_135" data-name="Linie 135"><path class="cls-2" d="M100.714,44.5a2,2,0,0,1-2-2v-9.17a2,2,0,0,1,4,0V42.5A2,2,0,0,1,100.714,44.5Z"/></g><g id="Linie_136" data-name="Linie 136"><path class="cls-2" d="M51.4,59.065a1.99,1.99,0,0,1-1.414-.586L43.5,52a2,2,0,0,1,2.829-2.828l6.484,6.484A2,2,0,0,1,51.4,59.065Z"/></g><g id="Linie_137" data-name="Linie 137"><path class="cls-2" d="M147.194,59.065a2,2,0,0,1-1.414-3.414l6.483-6.484A2,2,0,1,1,155.091,52l-6.483,6.484A1.992,1.992,0,0,1,147.194,59.065Z"/></g><g id="Linie_138" data-name="Linie 138"><path class="cls-2" d="M110.07,103.8a1.987,1.987,0,0,1-1-.268l-7.942-4.584a2,2,0,0,1,2-3.464l7.942,4.585a2,2,0,0,1-1,3.731Z"/></g><g id="Linie_139" data-name="Linie 139"><path class="cls-2" d="M100.336,120.355a2,2,0,0,1-1.731-3l4.585-7.94a2,2,0,0,1,3.464,2l-4.585,7.94A2,2,0,0,1,100.336,120.355Z"/></g><g id="Linie_140" data-name="Linie 140"><path class="cls-2" d="M164.535,136.415a2.059,2.059,0,0,1-.519-.067l-8.6-2.308a2,2,0,1,1,1.037-3.864l8.6,2.307a2,2,0,0,1-.517,3.932Z"/></g><g id="Linie_141" data-name="Linie 141"><path class="cls-2" d="M156,79.773a2,2,0,0,1-.483-3.942l8.531-2.127a2,2,0,0,1,.969,3.882l-8.531,2.127A2.039,2.039,0,0,1,156,79.773Z"/></g><g id="Linie_142" data-name="Linie 142"><path class="cls-2" d="M169.005,107.88h-9.169a2,2,0,0,1,0-4h9.169a2,2,0,0,1,0,4Z"/></g><g id="Linie_143" data-name="Linie 143"><path class="cls-2" d="M36.473,136.415a2,2,0,0,1-.517-3.932l8.6-2.307A2,2,0,1,1,45.6,134.04l-8.6,2.308A2.059,2.059,0,0,1,36.473,136.415Z"/></g><g id="Linie_144" data-name="Linie 144"><path class="cls-2" d="M45,79.773a2.039,2.039,0,0,1-.486-.06l-8.53-2.127a2,2,0,0,1,.969-3.882l8.53,2.127A2,2,0,0,1,45,79.773Z"/></g><g id="Linie_145" data-name="Linie 145"><path class="cls-2" d="M41.171,107.88H32a2,2,0,1,1,0-4h9.17a2,2,0,0,1,0,4Z"/></g><g id="Gruppe_162" data-name="Gruppe 162"><g id="Rechteck_120" data-name="Rechteck 120"><rect class="cls-1" x="68.999" y="69.457" width="54.811" height="63.193"/><path class="cls-2" d="M123.81,134.651H69a2,2,0,0,1-2-2V69.458a2,2,0,0,1,2-2H123.81a2,2,0,0,1,2,2v63.193A2,2,0,0,1,123.81,134.651Zm-52.811-4H121.81V71.458H71Z"/></g><g id="Pfad_244" data-name="Pfad 244"><path class="cls-1" d="M107.639,146.793,69.731,133.252v-63.2L74.8,71.864,107.639,83.6Z"/><path class="cls-2" d="M107.639,148.793a2.006,2.006,0,0,1-.673-.116L69.057,135.135a2,2,0,0,1-1.327-1.882v-63.2A2,2,0,0,1,70.4,68.169l37.908,13.545a2,2,0,0,1,1.327,1.884v63.2a2,2,0,0,1-2,2ZM71.73,131.844l33.909,12.11V85.007L71.73,72.89Z"/></g><g id="Pfad_245" data-name="Pfad 245"><path class="cls-1" d="M136.444,146.192l-12.9-13.541v-63.2l12.9,13.541Z"/><path class="cls-2" d="M136.444,148.193a2,2,0,0,1-1.448-.621L122.1,134.03a2,2,0,0,1-.552-1.379v-63.2A2,2,0,0,1,125,68.071l12.9,13.542a2,2,0,0,1,.552,1.379v63.2a2,2,0,0,1-2,2Zm-10.9-16.341,8.9,9.341v-57.4l-8.9-9.341Z"/></g></g></g></g></svg>