<svg id="Ebene_1" data-name="Ebene 1" xmlns="http://www.w3.org/2000/svg" viewBox="0 0 200 200"><defs><style>.cls-1{fill:#969696;}.cls-2{fill:#ffef42;}</style></defs><g id="Gruppe_167" data-name="Gruppe 167"><g id="Lettershop"><circle id="BG" class="cls-1" cx="100" cy="100" r="100"/></g><g id="icn-druck"><g id="Pfad_79" data-name="Pfad 79"><path class="cls-2" d="M50.71,101.339c-5.92,0-12.034-6.153-14.627-15.192a25.661,25.661,0,0,1-.449-13.415c1.154-4.313,3.613-7.212,6.928-8.162.106-.031.213-.059.32-.085.049-.019.1-.036.153-.051l90.218-25.87a2,2,0,0,1,1.442.133c.2.1,19.556,10.075,10.072,34.262a2,2,0,0,1-1.293,1.187l-90.245,26.8-.217.065h0A8.342,8.342,0,0,1,50.71,101.339ZM44.882,68.246a4.39,4.39,0,0,0-1.218.169c-2.577.739-3.716,3.67-4.165,5.351a21.625,21.625,0,0,0,.429,11.278c2.226,7.763,7.657,13.307,11.931,12.141l.032-.01.157-.047c4.158-1.345,5.807-8.88,3.6-16.588C53.618,73.471,48.917,68.246,44.882,68.246Zm6.054-1.917c3.664,2.531,6.861,7.2,8.554,13.108C61.171,85.3,60.951,90.918,59.219,95l82.166-24.4c6.551-17.931-4.876-26.177-7.83-27.955Z"/></g><g id="Pfad_80" data-name="Pfad 80"><path class="cls-2" d="M48.97,91.408a5.933,5.933,0,0,1-3.993-1.749,12.222,12.222,0,0,1-3.211-11.2,5.47,5.47,0,0,1,3.6-4.108,5.467,5.467,0,0,1,5.226,1.577,12.254,12.254,0,0,1,3.213,11.2,5.472,5.472,0,0,1-3.6,4.108A4.465,4.465,0,0,1,48.97,91.408ZM46.611,78.177a.53.53,0,0,0-.142.019c-.324.092-.654.6-.839,1.3a8.282,8.282,0,0,0,2.077,7.243c.526.491,1.065.75,1.4.656h0c.323-.093.651-.6.836-1.294a8.3,8.3,0,0,0-2.079-7.247A2.141,2.141,0,0,0,46.611,78.177Z"/></g><g id="Pfad_81" data-name="Pfad 81"><path class="cls-2" d="M64.223,142.115a2,2,0,0,1-.55-3.922c2.577-.74,3.716-3.671,4.166-5.352A23.639,23.639,0,0,0,61.8,111.767c-1.271-1.188-3.8-3.064-6.369-2.331h0a2,2,0,0,1-1.1-3.844h0L76.579,99.21a2,2,0,0,1,1.973.517,61.074,61.074,0,0,1,16.633,31.7,2,2,0,0,1-1.414,2.293l-29,8.315v0A2.031,2.031,0,0,1,64.223,142.115ZM62.69,107.354a16.419,16.419,0,0,1,1.835,1.49,27.583,27.583,0,0,1,7.178,25.03,16.415,16.415,0,0,1-.767,2.235l19.952-5.721a57.07,57.07,0,0,0-14.359-27Zm88.7,9.767a2,2,0,0,1-1.949-1.555,61.984,61.984,0,0,0-16.14-29.55,2,2,0,0,1,.877-3.321l11.094-3.181a2,2,0,0,1,1.5.163c.192.1,18.974,10.587,10.281,35.031a2,2,0,0,1-1.333,1.253l-3.78,1.083A2.03,2.03,0,0,1,151.385,117.121ZM138.41,85.641a65.97,65.97,0,0,1,14.422,26.985l.779-.224c5.991-18.216-5.134-26.882-8.081-28.8Z"/></g><g id="Pfad_82" data-name="Pfad 82"><path class="cls-2" d="M95.479,157.868a2,2,0,0,1-2-2.148c3.235-43.583-24.392-58.528-25.569-59.143a2,2,0,0,1,.371-3.7l57.379-16.454a2.005,2.005,0,0,1,1.744.317c33.07,24.553,27.484,62.6,27.424,62.985a2,2,0,0,1-1.424,1.609L96.03,157.79A1.993,1.993,0,0,1,95.479,157.868ZM73.548,95.533c7.983,5.971,25.656,23.175,24.1,57.634l53.377-15.306c.6-6.466,1.775-36.689-25.213-57.315Z"/></g><g id="Pfad_83" data-name="Pfad 83"><path class="cls-2" d="M62.473,142.359c-5.918,0-12.034-6.152-14.627-15.19a25.662,25.662,0,0,1-.45-13.415c1.153-4.314,3.613-7.212,6.928-8.163s6.936.205,10.2,3.253a27.583,27.583,0,0,1,7.178,25.03c-1.154,4.314-3.613,7.213-6.928,8.164A8.339,8.339,0,0,1,62.473,142.359ZM56.628,109.27a4.391,4.391,0,0,0-1.2.166c-2.578.74-3.717,3.671-4.167,5.352a21.637,21.637,0,0,0,.431,11.278c2.236,7.795,7.726,13.347,11.982,12.127v0c2.577-.738,3.716-3.669,4.166-5.35A23.639,23.639,0,0,0,61.8,111.767C60.723,110.766,58.762,109.27,56.628,109.27Z"/></g><g id="Pfad_84" data-name="Pfad 84"><path class="cls-2" d="M60.747,132.456c-2.907,0-5.837-2.8-7.026-6.943a11.479,11.479,0,0,1-.186-6.006,5.044,5.044,0,0,1,8.828-2.532,11.474,11.474,0,0,1,3.021,5.194c1.358,4.733-.138,9.176-3.406,10.114h0A4.47,4.47,0,0,1,60.747,132.456Zm.679-2.095h0ZM58.38,119.224a.544.544,0,0,0-.143.018c-.323.094-.652.6-.837,1.3a7.569,7.569,0,0,0,.166,3.871c.818,2.853,2.612,4.225,3.309,4.028s1.482-2.316.665-5.167a7.588,7.588,0,0,0-1.908-3.374A2.15,2.15,0,0,0,58.38,119.224Z"/></g></g></g></svg>